<svg xmlns="http://www.w3.org/2000/svg" width="101.064" height="92.721" viewBox="0 0 101.064 92.721">
  <defs>
    <style>
      .cls-1 {
        fill: #00adc2;
      }

      .cls-2, .cls-3 {
        fill: #fff;
      }

      .cls-2 {
        stroke: #00aec2;
        stroke-width: 4px;
      }

      .cls-4 {
        stroke: none;
      }

      .cls-5 {
        fill: none;
      }
    </style>
  </defs>
  <g id="Group_1202" data-name="Group 1202" transform="translate(-831 -387)">
    <g id="Group_1081" data-name="Group 1081" transform="matrix(0.559, 0.829, -0.829, 0.559, 923.305, 411.856)">
      <g id="Group_930" data-name="Group 930" transform="translate(0 0)">
        <path id="Path_280" data-name="Path 280" class="cls-1" d="M6.526,0,0,10.443H6.526L1.3,20.886,14.359,7.833H7.832L15.664,0Z" transform="translate(0)"/>
      </g>
    </g>
    <g id="Group_1080" data-name="Group 1080" transform="translate(900.354 388.844) rotate(6)">
      <g id="Group_930-2" data-name="Group 930" transform="translate(0 0)">
        <path id="Path_280-2" data-name="Path 280" class="cls-1" d="M6.526,0,0,10.443H6.526L1.3,20.886,14.359,7.833H7.832L15.664,0Z" transform="translate(0)"/>
      </g>
    </g>
    <g id="Group_1082" data-name="Group 1082" transform="translate(841.633 399.284) rotate(-58)">
      <g id="Group_930-3" data-name="Group 930" transform="translate(-0.318 1.378)">
        <path id="Path_280-3" data-name="Path 280" class="cls-1" d="M6.526,0,0,10.443H6.526L1.3,20.886,14.359,7.833H7.832L15.664,0Z" transform="translate(0)"/>
      </g>
    </g>
    <g id="Group_1083" data-name="Group 1083" transform="translate(834.524 431.371) rotate(-103)">
      <g id="Group_930-4" data-name="Group 930" transform="translate(0 0)">
        <path id="Path_280-4" data-name="Path 280" class="cls-1" d="M6.526,0,0,10.443H6.526L1.3,20.886,14.359,7.833H7.832L15.664,0Z" transform="translate(0)"/>
      </g>
    </g>
    <g id="Group_1076" data-name="Group 1076" transform="translate(-29.815 -13.279)">
      <g id="Ellipse_68" data-name="Ellipse 68" class="cls-2" transform="translate(902 406)">
        <circle class="cls-4" cx="8" cy="8" r="8"/>
        <circle class="cls-5" cx="8" cy="8" r="6"/>
      </g>
      <g id="Rectangle_344" data-name="Rectangle 344" class="cls-2" transform="translate(892 424)">
        <rect class="cls-4" width="36" height="33" rx="12"/>
        <rect class="cls-5" x="2" y="2" width="32" height="29" rx="10"/>
      </g>
      <g id="Group_1075" data-name="Group 1075">
        <g id="Rectangle_345" data-name="Rectangle 345" class="cls-2" transform="translate(900 433)">
          <rect class="cls-4" width="12" height="60" rx="6"/>
          <rect class="cls-5" x="2" y="2" width="8" height="56" rx="4"/>
        </g>
        <g id="Rectangle_347" data-name="Rectangle 347" class="cls-2" transform="translate(908 433)">
          <rect class="cls-4" width="12" height="60" rx="6"/>
          <rect class="cls-5" x="2" y="2" width="8" height="56" rx="4"/>
        </g>
      </g>
      <rect id="Rectangle_348" data-name="Rectangle 348" class="cls-3" width="12" height="29" transform="translate(904 431)"/>
    </g>
  </g>
</svg>
