<svg id="Conformite패_Europe패enne__logo_" data-name="Conformite패_Europe패enne_(logo)" xmlns="http://www.w3.org/2000/svg" width="43.775" height="31.268" viewBox="0 0 43.775 31.268">
  <path id="Pfad_326" data-name="Pfad 326" d="M17.2,31.189A15.634,15.634,0,1,1,17.2.078v4.69a10.944,10.944,0,0,0-1.563-.078,10.944,10.944,0,1,0,0,21.887A10.943,10.943,0,0,0,17.2,26.5Z" transform="translate(0 0)" fill-rule="evenodd"/>
  <path id="Pfad_327" data-name="Pfad 327" d="M187.2,31.189a15.634,15.634,0,1,1,0-31.111v4.69a11.222,11.222,0,0,0-12.254,8.521h9.127v4.69h-9.127A11.222,11.222,0,0,0,187.2,26.5Z" transform="translate(-143.422 0)" fill-rule="evenodd"/>
</svg>
