<svg xmlns="http://www.w3.org/2000/svg" width="45.12" height="33.829" viewBox="0 0 45.12 33.829">
  <g id="icon-pdf" transform="translate(-120.908 -790.283)">
    <path id="Pfad_323" data-name="Pfad 323" d="M4224.439,792.214s-4.119-2.645-9.156,1-12.375.461-12.375.461v28.848s7.472,1.329,13.137-1.7,8.395-.618,8.395-.618" transform="translate(-4081)" fill="none" stroke="#000" stroke-width="2"/>
    <path id="Pfad_324" data-name="Pfad 324" d="M4202.908,792.214s4.119-2.645,9.156,1,12.375.461,12.375.461v28.848s-7.472,1.329-13.137-1.7-8.394-.618-8.394-.618" transform="translate(-4059.411 0.187)" fill="none" stroke="#000" stroke-width="2"/>
    <line id="Linie_35" data-name="Linie 35" y2="28.05" transform="translate(143.879 791.473)" fill="none" stroke="#000" stroke-width="2"/>
    <path id="Pfad_325" data-name="Pfad 325" d="M4234.879,817.149v-1.481h2.366v-7.348h-2.366v-1.368h7.355v8.716h2.146v1.481Z" transform="translate(-4083.964 -1.33)"/>
    <circle id="Ellipse_15" data-name="Ellipse 15" cx="2.5" cy="2.5" r="2.5" transform="translate(152.811 798.26)"/>
  </g>
</svg>
