<svg xmlns="http://www.w3.org/2000/svg" width="83.281" height="52.018" viewBox="0 0 83.281 52.018">
  <defs>
    <style>
      .cls-1 {
        fill: none;
      }

      .cls-1, .cls-2, .cls-4 {
        stroke: #00aec2;
      }

      .cls-1, .cls-4 {
        stroke-width: 3.5px;
      }

      .cls-2, .cls-3, .cls-4 {
        fill: #fff;
      }

      .cls-2 {
        stroke-width: 4px;
      }

      .cls-3 {
        stroke: #fff;
        stroke-width: 0.3px;
      }

      .cls-5 {
        fill: #00aec2;
      }
    </style>
  </defs>
  <g id="Group_2056" data-name="Group 2056" transform="translate(-193.75 -392.75)">
    <g id="Group_2054" data-name="Group 2054" transform="translate(-8.033 10.138)">
      <path id="Path_357" data-name="Path 357" class="cls-1" d="M7.409,0a7.559,7.559,0,0,1,5.876,2.9,7.145,7.145,0,0,1,1.533,4.514,7.612,7.612,0,0,1-1.651,4.663,7.234,7.234,0,0,1-5.759,2.747A7.409,7.409,0,1,1,7.409,0Z" transform="translate(256.287 394.962)"/>
      <path id="Path_349" data-name="Path 349" class="cls-1" d="M364.5,256.441v-1.153c0-5.156.132-16.994,12-17.289h13.979c13.166.15,13.371,9.228,13.371,17.289v1.153" transform="translate(-120.538 178.052)"/>
      <path id="Path_350" data-name="Path 350" class="cls-2" d="M370.6,265.5v-2.47c.165-1.317.165-2.8,1.153-3.787,1.153-1.153,16.3-1.153,17.618,0,.988.659.823,2.47.823,3.787v2.47" transform="translate(-116.594 169.042)"/>
      <rect id="Rectangle_778" data-name="Rectangle 778" class="cls-3" width="16.521" height="11.791" transform="translate(255.542 422.689)"/>
    </g>
    <g id="Group_2055" data-name="Group 2055">
      <rect id="Rectangle_779" data-name="Rectangle 779" class="cls-4" width="34.259" height="48.391" transform="translate(195.5 394.499)"/>
      <rect id="Rectangle_780" data-name="Rectangle 780" class="cls-5" width="16.059" height="3.426" transform="translate(203.999 404.888)"/>
      <rect id="Rectangle_781" data-name="Rectangle 781" class="cls-5" width="16.059" height="3.426" transform="translate(203.999 413.239)"/>
      <rect id="Rectangle_782" data-name="Rectangle 782" class="cls-5" width="16.059" height="3.426" transform="translate(203.999 420.947)"/>
      <rect id="Rectangle_783" data-name="Rectangle 783" class="cls-5" width="16.059" height="3.426" transform="translate(203.999 429.084)"/>
    </g>
  </g>
</svg>
