<svg xmlns="http://www.w3.org/2000/svg" width="20" height="20" viewBox="0 0 20 20">
  <g id="Group_1307" data-name="Group 1307" transform="translate(-1393 -345)">
    <ellipse id="Ellipse_151" data-name="Ellipse 151" cx="10" cy="10" rx="10" ry="10" transform="translate(1393 345)" fill="#fff"/>
    <g id="Group_1292" data-name="Group 1292" transform="translate(1393 345)">
      <path id="Path_310" data-name="Path 310" d="M-3.969-3.024a1.025,1.025,0,0,0,.752-.321A1.066,1.066,0,0,0-2.9-4.122,1.077,1.077,0,0,0-3.214-4.9a1.016,1.016,0,0,0-.755-.324,1.026,1.026,0,0,0-.758.324,1.073,1.073,0,0,0-.317.779,1.065,1.065,0,0,0,.317.777,1.031,1.031,0,0,0,.758.321m.078-7.561a10,10,0,0,0-10,10,10,10,0,0,0,10,10,10,10,0,0,0,10-10,10,10,0,0,0-10-10m0,19.285A9.286,9.286,0,0,1-13.177-.585,9.286,9.286,0,0,1-3.891-9.871,9.285,9.285,0,0,1,5.394-.585,9.286,9.286,0,0,1-3.891,8.7m1.274-5.237a.509.509,0,0,1-.234-.219.725.725,0,0,1-.081-.357V-1.873l-.081-.09-2.661.156v.438a1.722,1.722,0,0,1,.361.084,1.11,1.11,0,0,1,.3.137A.778.778,0,0,1-4.8-.893a.759.759,0,0,1,.086.369V2.966a.77.77,0,0,1-.07.356.46.46,0,0,1-.244.207.912.912,0,0,1-.234.06c-.091.011-.183.022-.277.03v.438h3.431V3.62a1.543,1.543,0,0,1-.271-.06,1.628,1.628,0,0,1-.239-.1" transform="translate(13.891 10.585)"/>
    </g>
  </g>
</svg>
