<svg xmlns="http://www.w3.org/2000/svg" width="34" height="34" viewBox="0 0 34 34">
  <path id="settings-icon" d="M30.154,19.584l-.016.032A13.323,13.323,0,0,0,30.268,18a12.8,12.8,0,0,0-.113-1.584l.016.032,3.949-3.072L30.187,6.624,25.541,8.48l.016.016A12.443,12.443,0,0,0,22.79,6.9h.016L22.061,2H14.179l-.712,4.912h.016a12.443,12.443,0,0,0-2.768,1.6l.016-.016L6.069,6.624,2.12,13.376l3.949,3.072.016-.032A12.8,12.8,0,0,0,5.972,18,10.706,10.706,0,0,0,6.1,19.616l-.016-.032-3.4,2.64-.534.416,3.933,6.72,4.662-1.84-.032-.064a12.119,12.119,0,0,0,2.8,1.616h-.049L14.195,34h7.85s.049-.288.1-.672l.615-4.24h-.016a12.466,12.466,0,0,0,2.8-1.616l-.032.064,4.662,1.84,3.933-6.72s-.227-.192-.534-.416l-3.415-2.656ZM18.112,23.6A5.6,5.6,0,1,1,23.777,18,5.639,5.639,0,0,1,18.112,23.6Z" transform="translate(-1.12 -1)" fill="none" stroke="#fff" stroke-linejoin="round" stroke-width="2"/>
</svg>
