<svg xmlns="http://www.w3.org/2000/svg" width="65.086" height="65" viewBox="0 0 65.086 65">
  <g id="icon" transform="translate(-120 -377)">
    <rect id="Rectangle_1410" data-name="Rectangle 1410" width="65" height="65" transform="translate(120 377)" fill="#fff"/>
    <g id="Group_2035" data-name="Group 2035" transform="translate(122.264 378.083)">
      <rect id="Rectangle_784" data-name="Rectangle 784" width="15.072" height="21.289" transform="translate(0 9.137)" fill="#fff" stroke="#00aec2" stroke-width="3"/>
      <rect id="Rectangle_785" data-name="Rectangle 785" width="7.065" height="1.507" transform="translate(4.05 13.659)" fill="#00aec2"/>
      <rect id="Rectangle_786" data-name="Rectangle 786" width="7.065" height="1.507" transform="translate(4.05 17.332)" fill="#00aec2"/>
      <rect id="Rectangle_787" data-name="Rectangle 787" width="7.065" height="1.507" transform="translate(4.05 20.629)" fill="#00aec2"/>
      <rect id="Rectangle_788" data-name="Rectangle 788" width="7.065" height="1.507" transform="translate(4.05 24.209)" fill="#00aec2"/>
      <circle id="Ellipse_79" data-name="Ellipse 79" cx="5.652" cy="5.652" r="5.652" transform="translate(44.447 2.261)" fill="#fff"/>
      <circle id="Ellipse_80" data-name="Ellipse 80" cx="4.239" cy="4.239" r="4.239" transform="translate(45.86 3.674)" fill="none" stroke="#00aec2" stroke-width="3"/>
      <path id="Path_351" data-name="Path 351" d="M264.1,236.3h2.732a11.337,11.337,0,0,1,11.3,11.3v.659a11.337,11.337,0,0,1-11.3,11.3H264.1a11.337,11.337,0,0,1-11.3-11.3V247.6A11.337,11.337,0,0,1,264.1,236.3Z" transform="translate(-215.404 -221.348)" fill="#fff"/>
      <path id="Path_352" data-name="Path 352" d="M264.191,237.8h2.732a9.89,9.89,0,0,1,9.891,9.891v.659a9.89,9.89,0,0,1-9.891,9.891h-2.732a9.89,9.89,0,0,1-9.891-9.891v-.659A9.89,9.89,0,0,1,264.191,237.8Z" transform="translate(-215.491 -221.435)" fill="none" stroke="#00aec2" stroke-width="3"/>
      <g id="Rechteck_345" transform="translate(43.037 21.297)">
        <path id="Path_353" data-name="Path 353" d="M257.039,236.3h0a4.221,4.221,0,0,1,4.239,4.239v33.817a4.221,4.221,0,0,1-4.239,4.239h0a4.221,4.221,0,0,1-4.239-4.239V240.539A4.282,4.282,0,0,1,257.039,236.3Z" transform="translate(-252.8 -236.3)" fill="#fff"/>
        <path id="Path_354" data-name="Path 354" d="M257.126,237.8h0a2.775,2.775,0,0,1,2.826,2.826v33.817a2.775,2.775,0,0,1-2.826,2.826h0a2.776,2.776,0,0,1-2.826-2.826V240.626A2.834,2.834,0,0,1,257.126,237.8Z" transform="translate(-252.887 -236.387)" fill="none" stroke="#00aec2" stroke-width="3"/>
      </g>
      <g id="Rechteck_347" transform="translate(48.677 21.297)">
        <path id="Path_355" data-name="Path 355" d="M257.039,236.3h0a4.221,4.221,0,0,1,4.239,4.239v33.817a4.221,4.221,0,0,1-4.239,4.239h0a4.221,4.221,0,0,1-4.239-4.239V240.539A4.282,4.282,0,0,1,257.039,236.3Z" transform="translate(-252.8 -236.3)" fill="#fff"/>
        <path id="Path_356" data-name="Path 356" d="M257.126,237.8h0a2.775,2.775,0,0,1,2.826,2.826v33.817a2.775,2.775,0,0,1-2.826,2.826h0a2.776,2.776,0,0,1-2.826-2.826V240.626A2.834,2.834,0,0,1,257.126,237.8Z" transform="translate(-252.887 -236.387)" fill="none" stroke="#00aec2" stroke-width="3"/>
      </g>
      <rect id="Rechteck_348" width="8.478" height="20.441" transform="translate(45.874 19.97)" fill="#fff"/>
      <circle id="Ellipse_81" data-name="Ellipse 81" cx="3.485" cy="3.485" r="3.485" transform="translate(42.671)" fill="#fff" stroke="#00aec2" stroke-miterlimit="10" stroke-width="1"/>
      <circle id="Ellipse_82" data-name="Ellipse 82" cx="3.485" cy="3.485" r="3.485" transform="translate(41.07 42.86)" fill="#fff" stroke="#00aec2" stroke-miterlimit="10" stroke-width="1"/>
      <circle id="Ellipse_83" data-name="Ellipse 83" cx="3.485" cy="3.485" r="3.485" transform="translate(38.715 14.506)" fill="#fff" stroke="#00aec2" stroke-miterlimit="10" stroke-width="1"/>
      <line id="Line_106" data-name="Line 106" x1="27.223" y2="14.977" transform="translate(15.448 4.239)" fill="#fff" stroke="#00aec2" stroke-miterlimit="10" stroke-width="1"/>
      <line id="Line_107" data-name="Line 107" x1="23.267" y2="1.225" transform="translate(15.448 17.992)" fill="#fff" stroke="#00aec2" stroke-miterlimit="10" stroke-width="1"/>
      <line id="Line_108" data-name="Line 108" x1="25.151" y1="27.129" transform="translate(15.919 19.216)" fill="#fff" stroke="#00aec2" stroke-miterlimit="10" stroke-width="1"/>
    </g>
  </g>
</svg>
