<svg xmlns="http://www.w3.org/2000/svg" width="65.5" height="60.093" viewBox="0 0 65.5 60.093">
  <g id="Group_1202" data-name="Group 1202" transform="translate(-831 -387)">
    <g id="Group_1081" data-name="Group 1081" transform="matrix(0.559, 0.829, -0.829, 0.559, 890.823, 403.11)">
      <g id="Group_930" data-name="Group 930" transform="translate(0 0)">
        <path id="Path_280" data-name="Path 280" d="M4.23,0,0,6.768H4.23L.846,13.536l8.46-8.46H5.076L10.152,0Z" transform="translate(0)" fill="#00adc2"/>
      </g>
    </g>
    <g id="Group_1080" data-name="Group 1080" transform="translate(875.949 388.195) rotate(6)">
      <g id="Group_930-2" data-name="Group 930" transform="translate(0 0)">
        <path id="Path_280-2" data-name="Path 280" d="M4.23,0,0,6.768H4.23L.846,13.536l8.46-8.46H5.076L10.152,0Z" transform="translate(0)" fill="#00adc2"/>
      </g>
    </g>
    <g id="Group_1082" data-name="Group 1082" transform="translate(838.539 395.61) rotate(-58)">
      <g id="Group_930-3" data-name="Group 930" transform="translate(0 0)">
        <path id="Path_280-3" data-name="Path 280" d="M4.23,0,0,6.768H4.23L.846,13.536l8.46-8.46H5.076L10.152,0Z" transform="translate(0 0)" fill="#00adc2"/>
      </g>
    </g>
    <g id="Group_1083" data-name="Group 1083" transform="translate(833.284 415.757) rotate(-103)">
      <g id="Group_930-4" data-name="Group 930" transform="translate(0 0)">
        <path id="Path_280-4" data-name="Path 280" d="M4.23,0,0,6.768H4.23L.846,13.536l8.46-8.46H5.076L10.152,0Z" transform="translate(0)" fill="#00adc2"/>
      </g>
    </g>
    <g id="Group_1076" data-name="Group 1076" transform="translate(851.211 390.708)">
      <g id="Ellipse_68" data-name="Ellipse 68" transform="translate(6.481)" fill="#fff" stroke="#00aec2" stroke-width="2">
        <circle cx="5.185" cy="5.185" r="5.185" stroke="none"/>
        <circle cx="5.185" cy="5.185" r="4.185" fill="none"/>
      </g>
      <g id="Rectangle_344" data-name="Rectangle 344" transform="translate(0 11.666)" fill="#fff" stroke="#00aec2" stroke-width="2">
        <rect width="23.332" height="21.387" rx="10.694" stroke="none"/>
        <rect x="1" y="1" width="21.332" height="19.387" rx="9.694" fill="none"/>
      </g>
      <g id="Group_1075" data-name="Group 1075" transform="translate(5.185 17.499)">
        <g id="Rectangle_345" data-name="Rectangle 345" fill="#fff" stroke="#00aec2" stroke-width="2">
          <rect width="7.777" height="38.886" rx="3.889" stroke="none"/>
          <rect x="1" y="1" width="5.777" height="36.886" rx="2.889" fill="none"/>
        </g>
        <g id="Rectangle_347" data-name="Rectangle 347" transform="translate(5.185)" fill="#fff" stroke="#00aec2" stroke-width="2">
          <rect width="7.777" height="38.886" rx="3.889" stroke="none"/>
          <rect x="1" y="1" width="5.777" height="36.886" rx="2.889" fill="none"/>
        </g>
      </g>
      <rect id="Rectangle_348" data-name="Rectangle 348" width="7.777" height="18.795" transform="translate(7.777 16.203)" fill="#fff"/>
    </g>
  </g>
</svg>
