<svg xmlns="http://www.w3.org/2000/svg" width="58.472" height="58.471" viewBox="0 0 58.472 58.471">
  <g transform="translate(-464.801 -374.318)">
    <path d="M-24073.174-16393.783s8.8-8.248,11.574-10.754c2.67-2.416,8.8-1.119,13.377-5.588s3.852-10.17,5.412-12.352,12.568-13.143,12.568-13.143" transform="translate(24539 16811)" fill="none" stroke="#00aec2" stroke-width="3"/>
    <path d="M-24030.24-16393.783s-8.8-8.248-11.574-10.754c-2.67-2.416-8.8-1.119-13.377-5.588s-3.852-10.17-5.412-12.352-12.568-13.143-12.568-13.143" transform="translate(-15913.409 24462.004) rotate(90)" fill="none" stroke="#00aec2" stroke-width="3"/>
    <g transform="translate(503 382)" fill="#fff" stroke="#00aec2" stroke-width="3">
      <circle cx="4.5" cy="4.5" r="4.5" stroke="none"/>
      <circle cx="4.5" cy="4.5" r="3" fill="none"/>
    </g>
    <g transform="translate(500 391)" fill="#fff" stroke="#00aec2" stroke-width="3">
      <circle cx="4.5" cy="4.5" r="4.5" stroke="none"/>
      <circle cx="4.5" cy="4.5" r="3" fill="none"/>
    </g>
  </g>
</svg>
