<svg xmlns="http://www.w3.org/2000/svg" xmlns:xlink="http://www.w3.org/1999/xlink" width="101.064" height="94.842" viewBox="0 0 101.064 94.842">
  <defs>
    <clipPath id="clip-path">
      <path id="Path_209" data-name="Path 209" d="M0,0H40.385V-69.842H0Z" fill="none"/>
    </clipPath>
  </defs>
  <g id="Group_1804" data-name="Group 1804" transform="translate(-810 -385)">
    <g id="Group_1764" data-name="Group 1764" transform="translate(719 26.158)">
      <g id="Group_866" data-name="Group 866" transform="translate(121 453.684)">
        <g id="Group_857" data-name="Group 857" transform="translate(34.252 -66.395)">
          <path id="Path_205" data-name="Path 205" d="M0,0-.095-1.3-1.8-1.947-14.365-1.9l-12.563-.044-1.707.649L-28.73,0H0Z" fill="#fff"/>
        </g>
        <g id="Group_861" data-name="Group 861" clip-path="url(#clip-path)">
          <g id="Group_858" data-name="Group 858" transform="translate(34.252 -66.395)">
            <path id="Path_206" data-name="Path 206" d="M0,0-.095-1.3-1.8-1.947-14.365-1.9l-12.563-.044-1.707.649L-28.73,0H0Z" fill="none" stroke="#00aec2" stroke-width="3"/>
          </g>
          <g id="Group_859" data-name="Group 859" transform="translate(38.885 -7.698)">
            <path id="Path_207" data-name="Path 207" d="M0,0V-34.422l-.4-3.121L-8.026-48.511l-.115-2.278h-21.1l-.115,2.278-7.625,10.968-.4,3.121V0l.975,1.687a5.973,5.973,0,0,0,2.35,2.447,9.934,9.934,0,0,0,3.268.788V6.2H-6.313V4.887a9.164,9.164,0,0,0,2.988-.753A5.973,5.973,0,0,0-.975,1.687Z" fill="#fff"/>
          </g>
          <g id="Group_860" data-name="Group 860" transform="translate(38.885 -7.698)">
            <path id="Path_208" data-name="Path 208" d="M0,0V-34.422l-.4-3.121L-8.026-48.511l-.115-2.278h-21.1l-.115,2.278-7.625,10.968-.4,3.121V0l.975,1.687a5.973,5.973,0,0,0,2.35,2.447,9.934,9.934,0,0,0,3.268.788V6.2H-6.313V4.887a9.164,9.164,0,0,0,2.988-.753A5.973,5.973,0,0,0-.975,1.687Z" fill="none" stroke="#00aec2" stroke-width="3"/>
          </g>
        </g>
        <g id="Group_862" data-name="Group 862" transform="translate(9.605 -59.467)">
          <path id="Path_210" data-name="Path 210" d="M0,0H21.185l1.253-.8V-5.9H-1.139l-.2,4.989Z" fill="#fff"/>
        </g>
        <g id="Group_864" data-name="Group 864" clip-path="url(#clip-path)">
          <g id="Group_863" data-name="Group 863" transform="translate(9.605 -59.467)">
            <path id="Path_211" data-name="Path 211" d="M0,0H21.185l1.253-.8V-5.9H-1.139l-.2,4.989Z" fill="none" stroke="#00aec2" stroke-width="3"/>
          </g>
        </g>
        <path id="Path_213" data-name="Path 213" d="M1.761-15.768H38.734V-39.022H1.761Z" fill="#fff"/>
        <g id="Group_865" data-name="Group 865" clip-path="url(#clip-path)">
          <path id="Path_214" data-name="Path 214" d="M1.761-15.768H38.734V-39.022H1.761Z" fill="none" stroke="#00aec2" stroke-width="3"/>
        </g>
      </g>
      <line id="Line_80" data-name="Line 80" x2="20" transform="translate(128.5 421.5)" fill="none" stroke="#00aec2" stroke-width="3"/>
      <line id="Line_81" data-name="Line 81" x2="20" transform="translate(128.5 425.5)" fill="none" stroke="#00aec2" stroke-width="3"/>
      <line id="Line_82" data-name="Line 82" x2="13" transform="translate(128.5 430.5)" fill="none" stroke="#00aec2" stroke-width="3"/>
    </g>
    <g id="Group_1765" data-name="Group 1765" transform="translate(-42 39)">
      <g id="Group_1081" data-name="Group 1081" transform="matrix(0.559, 0.829, -0.829, 0.559, 944.305, 370.856)">
        <g id="Group_930" data-name="Group 930" transform="translate(0 0)">
          <path id="Path_280" data-name="Path 280" d="M6.526,0,0,10.443H6.526L1.3,20.886,14.359,7.833H7.832L15.664,0Z" transform="translate(0)" fill="#00aec2"/>
        </g>
      </g>
      <g id="Group_1080" data-name="Group 1080" transform="translate(921.354 347.844) rotate(6)">
        <g id="Group_930-2" data-name="Group 930" transform="translate(0 0)">
          <path id="Path_280-2" data-name="Path 280" d="M6.526,0,0,10.443H6.526L1.3,20.886,14.359,7.833H7.832L15.664,0Z" transform="translate(0)" fill="#00aec2"/>
        </g>
      </g>
      <g id="Group_1082" data-name="Group 1082" transform="translate(862.633 358.284) rotate(-58)">
        <g id="Group_930-3" data-name="Group 930" transform="translate(-0.318 1.378)">
          <path id="Path_280-3" data-name="Path 280" d="M6.526,0,0,10.443H6.526L1.3,20.886,14.359,7.833H7.832L15.664,0Z" transform="translate(0)" fill="#00aec2"/>
        </g>
      </g>
      <g id="Group_1083" data-name="Group 1083" transform="translate(855.524 390.371) rotate(-103)">
        <g id="Group_930-4" data-name="Group 930" transform="translate(0 0)">
          <path id="Path_280-4" data-name="Path 280" d="M6.526,0,0,10.443H6.526L1.3,20.886,14.359,7.833H7.832L15.664,0Z" transform="translate(0)" fill="#00aec2"/>
        </g>
      </g>
    </g>
  </g>
</svg>
