<svg xmlns="http://www.w3.org/2000/svg" xmlns:xlink="http://www.w3.org/1999/xlink" width="22" height="28.5" viewBox="0 0 22 28.5">
  <defs>
    <clipPath id="clip-path">
      <path id="Path_104" data-name="Path 104" d="M0,0H22V-28.5H0Z" fill="none"/>
    </clipPath>
  </defs>
  <g id="Group_1784" data-name="Group 1784" transform="translate(0 28.5)">
    <g id="Group_215" data-name="Group 215" clip-path="url(#clip-path)">
      <g id="Group_213" data-name="Group 213" transform="translate(11 -11.5)">
        <path id="Path_102" data-name="Path 102" d="M0,0A1.5,1.5,0,0,0-1.5,1.5a1.5,1.5,0,0,0,1,1.408V4.5A.5.5,0,0,0,0,5a.5.5,0,0,0,.5-.5V2.908A1.5,1.5,0,0,0,1.5,1.5,1.5,1.5,0,0,0,0,0M8.5-6h-2v-4A6.5,6.5,0,0,0,0-16.5,6.5,6.5,0,0,0-6.5-10v4h-2a2,2,0,0,0-2,2V9a2,2,0,0,0,2,2h17a2,2,0,0,0,2-2V-4a2,2,0,0,0-2-2m-14-4A5.5,5.5,0,0,1,0-15.5,5.5,5.5,0,0,1,5.5-10v4h-11ZM9.5,9a1,1,0,0,1-1,1h-17a1,1,0,0,1-1-1V-4a1,1,0,0,1,1-1h17a1,1,0,0,1,1,1Z" fill="#fff"/>
      </g>
      <g id="Group_214" data-name="Group 214" transform="translate(11 -11.5)">
        <path id="Path_103" data-name="Path 103" d="M0,0A1.5,1.5,0,0,0-1.5,1.5a1.5,1.5,0,0,0,1,1.408V4.5A.5.5,0,0,0,0,5a.5.5,0,0,0,.5-.5V2.908A1.5,1.5,0,0,0,1.5,1.5,1.5,1.5,0,0,0,0,0ZM8.5-6h-2v-4A6.5,6.5,0,0,0,0-16.5,6.5,6.5,0,0,0-6.5-10v4h-2a2,2,0,0,0-2,2V9a2,2,0,0,0,2,2h17a2,2,0,0,0,2-2V-4A2,2,0,0,0,8.5-6Zm-14-4A5.5,5.5,0,0,1,0-15.5,5.5,5.5,0,0,1,5.5-10v4h-11ZM9.5,9a1,1,0,0,1-1,1h-17a1,1,0,0,1-1-1V-4a1,1,0,0,1,1-1h17a1,1,0,0,1,1,1Z" fill="none" stroke="#fff" stroke-width="1"/>
      </g>
    </g>
  </g>
</svg>
