<svg xmlns="http://www.w3.org/2000/svg" xmlns:xlink="http://www.w3.org/1999/xlink" width="146" height="91.305" viewBox="0 0 146 91.305">
  <defs>
    <clipPath id="clip-path">
      <path id="Path_257" data-name="Path 257" d="M0,13.913H146V-77.392H0Z" transform="translate(0 77.392)" fill="none"/>
    </clipPath>
    <clipPath id="clip-path-4">
      <rect id="Rectangle_253" data-name="Rectangle 253" width="132.266" height="19.471" fill="none"/>
    </clipPath>
  </defs>
  <g id="Group_927" data-name="Group 927" transform="translate(-463 -385.391)">
    <rect id="Rectangle_254" data-name="Rectangle 254" width="127.416" height="66.068" transform="translate(472.438 394.368)" fill="#fff"/>
    <g id="Group_902" data-name="Group 902" transform="translate(463 385.391)">
      <g id="Group_903" data-name="Group 903" clip-path="url(#clip-path)">
        <g id="Group_902-2" data-name="Group 902" transform="translate(1.77 1.77)">
          <path id="Path_256" data-name="Path 256" d="M1.079,0S-6,0-6,7.079V72.8s0,7.079,7.079,7.079h128.3s7.079,0,7.079-7.079V7.079S136.461,0,129.382,0Z" transform="translate(6)" fill="none" stroke="#00adc2" stroke-width="3"/>
        </g>
      </g>
      <path id="Path_258" data-name="Path 258" d="M8.192-4.44H134.861V-69.7H8.192Z" transform="translate(1.473 78.776)" fill="none" stroke="#00adc2" stroke-width="1"/>
      <g id="Group_910" data-name="Group 910" clip-path="url(#clip-path)">
        <g id="Group_904" data-name="Group 904" transform="translate(45.661 88.946)">
          <path id="Path_259" data-name="Path 259" d="M0,0H56.183" fill="none" stroke="#00adc2" stroke-width="4"/>
        </g>
        <g id="Group_905" data-name="Group 905" transform="translate(21.289 59.439)">
          <path id="Path_260" data-name="Path 260" d="M0,.847H1.628c1.6,0,2.841-.689,2.841-2.683,0-1.936-1.22-2.625-2.841-2.625H0ZM1.162-.1V-3.485h.531c1.162,0,1.607.531,1.607,1.663C3.3-.616,2.862-.1,1.707-.1ZM7.467.947A2.1,2.1,0,0,0,9.691-.867l-1.1-.244C8.406-.387,8.1.008,7.474.008c-.8,0-1.248-.7-1.248-1.823,0-1.1.431-1.778,1.234-1.778.624,0,.882.415,1.055,1.025l1.1-.323A1.985,1.985,0,0,0,7.467-4.561c-1.341,0-2.41.9-2.41,2.747C5.057.058,6.083.947,7.467.947m3.07-.1h3.745V-.1H11.706V-1.419h1.772v-.925H11.706V-3.485h2.446v-.976H10.537Zm8.077,1.47.566-.523a4.324,4.324,0,0,1-1.2-2.992,4.367,4.367,0,0,1,1.161-2.955l-.53-.559A4.43,4.43,0,0,0,16.776-1.2a4.43,4.43,0,0,0,1.837,3.515M21.977.947A1.462,1.462,0,0,0,23.361.116h.014V.847h.94V-1.814H22.278v.868H23.2a1.07,1.07,0,0,1-1.091.954c-.566,0-1.284-.373-1.284-1.858s.8-1.743,1.234-1.743c.524,0,.86.287,1.083,1.025l1.069-.294a2,2,0,0,0-2.145-1.7c-1.492,0-2.417,1.069-2.417,2.732,0,1.6.717,2.776,2.324,2.776m3.385-.1H26.51v-2h.675l1.1,2h1.234L28.339-1.3a1.418,1.418,0,0,0,1.1-1.514c0-1.176-.782-1.642-2.087-1.642h-2Zm1.148-2.9V-3.506h.8c.675,0,1,.193,1,.717s-.322.731-1,.731Zm3.91,2.9h3.743V-.1H31.589V-1.419h1.771v-.925H31.589V-3.485h2.446v-.976H30.419Zm4.74,1.47A4.421,4.421,0,0,0,36.988-1.2,4.421,4.421,0,0,0,35.16-4.712l-.538.559A4.33,4.33,0,0,1,35.784-1.2a4.35,4.35,0,0,1-1.19,2.992ZM46.722.9A1.7,1.7,0,0,0,47.94.411a1.345,1.345,0,0,0,.072.437h.526a2.168,2.168,0,0,1-.09-.777V-1.322A.927.927,0,0,0,47.4-2.375a2.1,2.1,0,0,0-1.464.586l.269.322a1.693,1.693,0,0,1,1.142-.478.525.525,0,0,1,.6.585v.144C46.375-.993,45.831-.539,45.831.1c0,.507.347.8.891.8m.15-.407c-.329,0-.532-.162-.532-.466,0-.4.4-.688,1.6-.879V.028a1.5,1.5,0,0,1-1.069.46m2.164.359h.538l.842-1.255L51.264.847h.557L50.7-.79l1.052-1.518h-.544l-.766,1.154-.77-1.154h-.563L50.158-.785Zm3.412-3.832h.538v-.5h-.538ZM52.46.847h.514V-2.309H52.46Zm12.2,0h.631V-1.606h1.879v-.567H65.293V-3.88h2.554v-.58H64.661Zm6.118.1c1.313,0,2.282-1.048,2.282-2.754s-.969-2.755-2.282-2.755-2.295,1.048-2.295,2.755S69.468.947,70.78.947m0-.566c-.976,0-1.656-.8-1.656-2.187S69.8-3.988,70.78-3.988s1.649.8,1.649,2.181S71.741.381,70.78.381m4.777.487h.589l1.864-5.329H77.4L75.873.022h-.014L74.338-4.461h-.647Zm15.18,1.2.245-.245A3.563,3.563,0,0,1,89.792-.8a3.569,3.569,0,0,1,1.177-2.612l-.232-.257A3.626,3.626,0,0,0,89.236-.8a3.636,3.636,0,0,0,1.5,2.869M91.591.847h2.086V.381h-.741V-3.576h-.49a1.291,1.291,0,0,1-.844.287v.466a2.006,2.006,0,0,0,.82-.2V.381h-.832Zm3.885.084c1.029,0,1.787-.951,1.787-2.373,0-1.507-.693-2.218-1.608-2.218a1.453,1.453,0,0,0-1.524,1.482A1.279,1.279,0,0,0,95.518-.79a1.693,1.693,0,0,0,1.232-.562C96.737-.3,96.259.477,95.495.477A1.326,1.326,0,0,1,94.6.159l-.257.389a1.713,1.713,0,0,0,1.129.382m.126-2.17a.858.858,0,0,1-.963-.951.925.925,0,0,1,.986-1.016c.58,0,1.035.413,1.111,1.38a1.462,1.462,0,0,1-1.135.586M97.844.847h2.922V.381H98.435c.048-.376.425-.813,1.2-1.3.848-.538,1.111-.932,1.111-1.511A1.2,1.2,0,0,0,99.421-3.66a1.667,1.667,0,0,0-1.512.944l.407.251A1.218,1.218,0,0,1,99.4-3.194a.751.751,0,0,1,.831.8c0,.472-.269.741-.932,1.166C98.13-.486,97.844.112,97.844.752Zm3.807,1.226A3.629,3.629,0,0,0,103.146-.8a3.619,3.619,0,0,0-1.495-2.869l-.239.257A3.543,3.543,0,0,1,102.589-.8a3.578,3.578,0,0,1-1.183,2.624Z" transform="translate(0 4.712)" fill="#00adc2"/>
        </g>
        <g id="Group_906" data-name="Group 906" transform="translate(21.289 48.681)">
          <path id="Path_261" data-name="Path 261" d="M0,.847H1.628c1.6,0,2.841-.689,2.841-2.683,0-1.936-1.22-2.625-2.841-2.625H0ZM1.162-.1V-3.485h.531c1.162,0,1.607.531,1.607,1.663C3.3-.616,2.862-.1,1.707-.1ZM6.326.847H7.337l.9-3.694h.015L9.088.847h1l1.384-5.308H10.393L9.855-2.008c-.1.431-.164.645-.236,1.127H9.6c-.072-.473-.151-.717-.251-1.141L8.779-4.461H7.7L7.166-2.036A11.709,11.709,0,0,0,6.922-.881H6.908a11.316,11.316,0,0,0-.258-1.162L6.09-4.461H4.914Zm5.9,0h1.162V-4.461H12.223Zm5.846,1.47.566-.523a4.325,4.325,0,0,1-1.2-2.992A4.368,4.368,0,0,1,18.6-4.153l-.53-.559A4.43,4.43,0,0,0,16.231-1.2a4.43,4.43,0,0,0,1.837,3.515M19.359.847H23.1V-.1H20.528V-1.419H22.3v-.925H20.528V-3.485h2.446v-.976H19.359Zm4.54,0h1.162V-1.039h.753c1.062,0,2.181-.294,2.181-1.721,0-1.4-1.033-1.7-2.166-1.7H23.9Zm1.162-2.79V-3.506h.8c.731,0,1,.28,1,.774,0,.51-.273.789-1,.789ZM28.805.847h1.162V-4.461H28.805Zm4.475,0h1.148V-2.137h.832v-.839h-.832v-.23c0-.409.258-.459.538-.459a2,2,0,0,1,.337.028v-.8a6.227,6.227,0,0,0-.7-.05c-1.134,0-1.327.609-1.327,1.248v.265h-.638v.839h.638Zm4.067.079c.882,0,1.686-.366,1.686-1.291,0-.868-.8-1.041-1.549-1.169-.473-.086-.682-.179-.682-.409,0-.208.186-.337.517-.337a2.048,2.048,0,0,1,1.127.416l.452-.652a2.463,2.463,0,0,0-1.679-.538c-.853,0-1.484.445-1.484,1.212,0,.9.774,1.069,1.5,1.2.524.093.724.195.724.46,0,.25-.251.373-.61.373a2.114,2.114,0,0,1-1.326-.5l-.459.645a2.631,2.631,0,0,0,1.785.589M39.98,2.317A4.421,4.421,0,0,0,41.809-1.2,4.421,4.421,0,0,0,39.98-4.712l-.538.559A4.33,4.33,0,0,1,40.6-1.2a4.351,4.351,0,0,1-1.192,2.992ZM46.722.9A1.7,1.7,0,0,0,47.94.411a1.345,1.345,0,0,0,.072.437h.526a2.168,2.168,0,0,1-.09-.777V-1.322A.927.927,0,0,0,47.4-2.375a2.1,2.1,0,0,0-1.464.586l.269.322a1.693,1.693,0,0,1,1.142-.478.525.525,0,0,1,.6.586v.143C46.375-.993,45.831-.539,45.831.1c0,.507.347.8.891.8m.15-.407c-.329,0-.532-.162-.532-.466,0-.4.4-.688,1.6-.879V.028a1.5,1.5,0,0,1-1.069.46m2.164.359h.538l.842-1.255L51.264.847h.557L50.7-.79l1.052-1.518h-.544l-.766,1.154-.77-1.154h-.563L50.158-.785Zm3.412-3.832h.538v-.5h-.538ZM52.46.847h.514V-2.309H52.46Zm12.2,0h.631V-1.606h1.879v-.567H65.293V-3.88h2.554v-.58H64.661Zm6.118.1c1.313,0,2.282-1.048,2.282-2.754s-.969-2.755-2.282-2.755-2.295,1.048-2.295,2.755S69.468.947,70.78.947m0-.566c-.976,0-1.656-.8-1.656-2.187S69.8-3.988,70.78-3.988s1.649.8,1.649,2.181S71.741.381,70.78.381m4.777.487h.589l1.864-5.329H77.4L75.873.022h-.014L74.338-4.461h-.647Zm15.18,1.2.245-.245A3.563,3.563,0,0,1,89.792-.8a3.569,3.569,0,0,1,1.177-2.612l-.232-.257A3.626,3.626,0,0,0,89.236-.8a3.636,3.636,0,0,0,1.5,2.869m.8-1.226h2.922V.381H92.123c.048-.376.425-.813,1.2-1.3.849-.538,1.113-.932,1.113-1.511A1.2,1.2,0,0,0,93.109-3.66a1.667,1.667,0,0,0-1.512.944L92-2.465a1.218,1.218,0,0,1,1.082-.729.751.751,0,0,1,.831.8c0,.472-.269.741-.932,1.166C91.819-.486,91.532.112,91.532.752Zm5.254.084c1.064,0,1.655-.914,1.655-2.3S97.85-3.66,96.786-3.66s-1.668.914-1.668,2.295.61,2.3,1.668,2.3m0-.46c-.7,0-1.142-.634-1.142-1.836s.419-1.829,1.142-1.829c.694,0,1.136.628,1.136,1.829S97.5.471,96.786.471m4.286.376h.507V-.175h.747v-.46h-.747V-3.576h-.628l-2.014,3v.4h2.134ZM99.517-.635l1.542-2.325h.013V-.635Zm3.473,2.708A3.628,3.628,0,0,0,104.484-.8a3.618,3.618,0,0,0-1.494-2.869l-.239.257A3.543,3.543,0,0,1,103.928-.8a3.578,3.578,0,0,1-1.183,2.624Z" transform="translate(0 4.712)" fill="#00adc2"/>
        </g>
        <g id="Group_907" data-name="Group 907" transform="translate(20.901 38.073)">
          <path id="Path_262" data-name="Path 262" d="M.241.824H1.41V-3.508H3v-.976H-1.338v.976H.241Zm3.1,0h3.9V-.087H4.724c.028-.316.538-.71,1.3-1.2C7.048-1.931,7.2-2.453,7.2-3.042c0-.939-.652-1.542-1.793-1.542A2.288,2.288,0,0,0,3.389-3.429l.825.58a1.454,1.454,0,0,1,1.162-.76.618.618,0,0,1,.7.645c0,.538-.323.739-1.148,1.262C3.525-.8,3.339-.058,3.339.71Zm5.351,0H9.752l.573-2.331h.014L10.914.824h1.068L13.1-3H12.075l-.35,1.377c-.109.394-.172.674-.265,1.162h-.015c-.1-.5-.157-.775-.273-1.176L10.82-3h-.9l-.33,1.34c-.107.416-.172.7-.265,1.2H9.314c-.086-.5-.151-.768-.251-1.169L8.733-3H7.571Zm8.091,0H17.95V-3.508h1.584v-.976H15.2v.976h1.579Zm5.429.1c1.477,0,2.124-.76,2.124-1.614,0-1.1-.99-1.391-1.923-1.642-.7-.193-1.09-.344-1.09-.768,0-.315.273-.53.768-.53a1.58,1.58,0,0,1,1.3.753l.811-.617A2.384,2.384,0,0,0,22.1-4.584c-1.141,0-1.916.6-1.916,1.586,0,1.111.99,1.356,1.937,1.621.7.193,1.076.366,1.076.767s-.387.61-.925.61a1.576,1.576,0,0,1-1.435-.9l-.882.524A2.375,2.375,0,0,0,22.21.924M25.2.824h3.745V-.123H26.37V-1.442h1.772v-.925H26.37V-3.508h2.446v-.976H25.2Zm20.151,0h.514V-.144l.628-.675L47.426.824h.55L46.828-1.2l1.035-1.129h-.586L45.866-.754V-3.6h-.514ZM49.87.89A1.482,1.482,0,0,0,51.334-.754,1.478,1.478,0,0,0,49.87-2.4,1.479,1.479,0,0,0,48.4-.754,1.487,1.487,0,0,0,49.87.89m0-.437c-.639,0-.95-.538-.95-1.208,0-.71.346-1.2.95-1.2.628,0,.945.544.945,1.2,0,.723-.347,1.208-.945,1.208m2.194.37h.513V-1.215a1.21,1.21,0,0,1,1.113-.711,1.045,1.045,0,0,1,.149.007l.037-.479H53.81a1.356,1.356,0,0,0-1.22.651h-.012v-.585h-.513Zm11.647,0h.631V-1.629h1.879V-2.2H64.343V-3.9H66.9v-.58H63.711Zm6.118.1c1.313,0,2.281-1.048,2.281-2.754s-.967-2.755-2.281-2.755-2.3,1.048-2.3,2.755S68.517.924,69.83.924m0-.566c-.976,0-1.656-.8-1.656-2.187s.681-2.181,1.656-2.181,1.649.8,1.649,2.181S70.791.358,69.83.358m4.777.487h.588l1.865-5.329h-.61L74.922,0h-.014L73.387-4.484h-.645Zm14.9,1.2.244-.245A3.562,3.562,0,0,1,88.562-.819,3.565,3.565,0,0,1,89.74-3.431l-.232-.257a3.626,3.626,0,0,0-1.5,2.869,3.636,3.636,0,0,0,1.5,2.869M90.362.824h2.086V.358h-.741V-3.6h-.491a1.288,1.288,0,0,1-.842.287v.466a2,2,0,0,0,.819-.2V.358h-.831Zm2.959,0h.538L95.7-3.156V-3.6H92.907v.472h2.242ZM97.9.908c1.063,0,1.655-.914,1.655-2.3S98.962-3.683,97.9-3.683s-1.668.914-1.668,2.295.61,2.3,1.668,2.3m0-.46c-.7,0-1.142-.634-1.142-1.836s.419-1.829,1.142-1.829c.693,0,1.135.628,1.135,1.829S98.611.448,97.9.448m2.5,1.6A3.629,3.629,0,0,0,101.9-.819,3.619,3.619,0,0,0,100.4-3.689l-.238.257a3.543,3.543,0,0,1,1.177,2.612A3.578,3.578,0,0,1,100.158,1.8Z" transform="translate(1.338 4.584)" fill="#00adc2"/>
        </g>
        <g id="Group_908" data-name="Group 908" transform="translate(20.901 27.314)">
          <path id="Path_263" data-name="Path 263" d="M.241.824H1.41V-3.508H3v-.976H-1.338v.976H.241Zm3.1,0h3.9V-.087H4.724c.028-.316.538-.71,1.3-1.2C7.048-1.931,7.2-2.453,7.2-3.042c0-.939-.652-1.542-1.793-1.542A2.288,2.288,0,0,0,3.389-3.429l.825.58a1.454,1.454,0,0,1,1.162-.76.618.618,0,0,1,.7.645c0,.538-.323.739-1.148,1.262C3.525-.8,3.339-.058,3.339.71Zm5.351,0H9.752l.573-2.331h.014L10.914.824h1.068L13.1-3H12.075l-.35,1.377c-.109.394-.172.674-.265,1.162h-.015c-.1-.5-.157-.775-.273-1.176L10.82-3h-.9l-.33,1.34c-.107.416-.172.7-.265,1.2H9.314c-.086-.5-.151-.768-.251-1.169L8.733-3H7.571Zm8.091,0H17.95V-3.508h1.584v-.976H15.2v.976h1.579Zm5.429.1c1.477,0,2.124-.76,2.124-1.614,0-1.1-.99-1.391-1.923-1.642-.7-.193-1.09-.344-1.09-.768,0-.315.273-.53.768-.53a1.58,1.58,0,0,1,1.3.753l.811-.617A2.384,2.384,0,0,0,22.1-4.584c-1.141,0-1.916.6-1.916,1.586,0,1.111.99,1.356,1.937,1.621.7.193,1.076.366,1.076.767s-.387.61-.925.61a1.576,1.576,0,0,1-1.435-.9l-.882.524A2.375,2.375,0,0,0,22.21.924M25.2.824h3.745V-.123H26.37V-1.442h1.772v-.925H26.37V-3.508h2.446v-.976H25.2Zm21.215.06c.717,0,1.261-.323,1.261-.927,0-.651-.491-.825-1.2-1-.5-.113-.748-.221-.748-.513,0-.222.179-.425.639-.425a1.362,1.362,0,0,1,.914.376l.269-.341A1.639,1.639,0,0,0,46.344-2.4c-.688,0-1.105.382-1.105.861,0,.61.46.789,1.129.95.538.126.813.245.813.563s-.269.5-.759.5a1.3,1.3,0,0,1-.986-.437l-.31.311a1.669,1.669,0,0,0,1.291.538m2.7-.012A1.7,1.7,0,0,0,50.33.388,1.345,1.345,0,0,0,50.4.824h.526a2.168,2.168,0,0,1-.09-.777V-1.346A.927.927,0,0,0,49.787-2.4a2.1,2.1,0,0,0-1.464.586l.269.322a1.688,1.688,0,0,1,1.142-.478.525.525,0,0,1,.6.586v.143c-1.566.222-2.109.676-2.109,1.315,0,.507.347.8.891.8M49.26.465c-.328,0-.531-.162-.531-.466,0-.4.4-.688,1.6-.879V.005a1.5,1.5,0,0,1-1.07.46m3.629,1.571c.914,0,1.542-.316,1.542-.914,0-.507-.407-.764-1.208-.819L52.578.251c-.334-.031-.437-.09-.437-.222,0-.107.09-.185.222-.245a1.678,1.678,0,0,0,.5.078,1.15,1.15,0,0,0,1.274-1.123.928.928,0,0,0-.162-.544,1.622,1.622,0,0,1,.567-.1v-.454a1.665,1.665,0,0,0-.747.293,1.39,1.39,0,0,0-.933-.329A1.169,1.169,0,0,0,51.58-1.262a1.043,1.043,0,0,0,.485.908.653.653,0,0,0-.4.508.415.415,0,0,0,.269.4.77.77,0,0,0-.573.7c0,.478.46.782,1.524.782M52.87-.515a.718.718,0,0,1-.8-.735A.719.719,0,0,1,52.865-2a.708.708,0,0,1,.8.747.709.709,0,0,1-.789.735m.084,2.164c-.782,0-1.111-.156-1.111-.472,0-.215.162-.413.466-.52l.179.018.6.042c.663.047.873.173.873.454s-.378.478-1.005.478M63.711.824h.631V-1.629h1.879V-2.2H64.343V-3.9H66.9v-.58H63.711Zm6.118.1c1.313,0,2.281-1.048,2.281-2.754s-.967-2.755-2.281-2.755-2.3,1.048-2.3,2.755S68.517.924,69.83.924m0-.566c-.976,0-1.656-.8-1.656-2.187s.681-2.181,1.656-2.181,1.649.8,1.649,2.181S70.791.358,69.83.358m4.777.487h.588l1.865-5.329h-.61L74.922,0h-.014L73.387-4.484h-.645Zm15.18,1.2.244-.245A3.562,3.562,0,0,1,88.842-.819a3.565,3.565,0,0,1,1.177-2.612l-.232-.257a3.626,3.626,0,0,0-1.5,2.869,3.636,3.636,0,0,0,1.5,2.869M90.641.824h2.086V.358h-.741V-3.6H91.5a1.293,1.293,0,0,1-.844.287v.466a2,2,0,0,0,.819-.2V.358h-.831Zm2.959,0h.538l1.84-3.981V-3.6H93.187v.472h2.242Zm4.579.084c1.064,0,1.655-.914,1.655-2.3s-.591-2.295-1.655-2.295-1.668.914-1.668,2.295.61,2.3,1.668,2.3m0-.46c-.7,0-1.142-.634-1.142-1.836s.419-1.829,1.142-1.829c.693,0,1.135.628,1.135,1.829S98.89.448,98.179.448m2.5,1.6a3.632,3.632,0,0,0,1.494-2.869,3.621,3.621,0,0,0-1.494-2.869l-.24.257a3.543,3.543,0,0,1,1.177,2.612A3.578,3.578,0,0,1,100.438,1.8Z" transform="translate(1.338 4.584)" fill="#00adc2"/>
        </g>
        <g id="Group_909" data-name="Group 909" transform="translate(20.901 16.554)">
          <path id="Path_264" data-name="Path 264" d="M.241.824H1.41V-3.508H3v-.976H-1.338v.976H.241Zm3.1,0h3.9V-.087H4.724c.028-.316.538-.71,1.3-1.2C7.048-1.931,7.2-2.453,7.2-3.042c0-.939-.652-1.542-1.793-1.542A2.288,2.288,0,0,0,3.389-3.429l.825.58a1.454,1.454,0,0,1,1.162-.76.618.618,0,0,1,.7.645c0,.538-.323.739-1.148,1.262C3.525-.8,3.339-.058,3.339.71Zm5.351,0H9.752l.573-2.331h.014L10.914.824h1.068L13.1-3H12.075l-.35,1.377c-.109.394-.172.674-.265,1.162h-.015c-.1-.5-.157-.775-.273-1.176L10.82-3h-.9l-.33,1.34c-.107.416-.172.7-.265,1.2H9.314c-.086-.5-.151-.768-.251-1.169L8.733-3H7.571Zm8.091,0H17.95V-3.508h1.584v-.976H15.2v.976h1.579Zm5.429.1c1.477,0,2.124-.76,2.124-1.614,0-1.1-.99-1.391-1.923-1.642-.7-.193-1.09-.344-1.09-.768,0-.315.273-.53.768-.53a1.58,1.58,0,0,1,1.3.753l.811-.617A2.384,2.384,0,0,0,22.1-4.584c-1.141,0-1.916.6-1.916,1.586,0,1.111.99,1.356,1.937,1.621.7.193,1.076.366,1.076.767s-.387.61-.925.61a1.576,1.576,0,0,1-1.435-.9l-.882.524A2.375,2.375,0,0,0,22.21.924M25.2.824h3.745V-.123H26.37V-1.442h1.772v-.925H26.37V-3.508h2.446v-.976H25.2Zm20.85.048A1.7,1.7,0,0,0,47.27.388a1.345,1.345,0,0,0,.072.437h.526a2.168,2.168,0,0,1-.09-.777V-1.346A.927.927,0,0,0,46.726-2.4a2.1,2.1,0,0,0-1.464.586l.269.322a1.688,1.688,0,0,1,1.142-.478.525.525,0,0,1,.6.585v.144c-1.566.222-2.109.676-2.109,1.315,0,.507.347.8.891.8M46.2.465c-.328,0-.531-.162-.531-.466,0-.4.4-.688,1.6-.879V.005a1.5,1.5,0,0,1-1.07.46m2.164.359H48.9l.844-1.255L50.594.824h.556L50.032-.813l1.052-1.518H50.54l-.766,1.154L49-2.332h-.563L49.488-.808Zm3.413-3.832h.538v-.5h-.538ZM51.789.824H52.3V-2.332h-.514Zm11.923,0h.631V-1.629h1.879V-2.2H64.343V-3.9H66.9v-.58H63.711Zm6.118.1c1.313,0,2.281-1.048,2.281-2.754s-.967-2.755-2.281-2.755-2.3,1.048-2.3,2.755S68.517.924,69.83.924m0-.566c-.976,0-1.656-.8-1.656-2.187s.681-2.181,1.656-2.181,1.649.8,1.649,2.181S70.791.358,69.83.358m4.777.487h.588l1.865-5.329h-.61L74.922,0h-.014L73.387-4.484h-.645Zm15,1.2.245-.245A3.562,3.562,0,0,1,88.661-.819a3.565,3.565,0,0,1,1.177-2.612l-.234-.257a3.628,3.628,0,0,0-1.5,2.869,3.638,3.638,0,0,0,1.5,2.869M90.461.824h2.086V.358h-.741V-3.6h-.491a1.288,1.288,0,0,1-.842.287v.466a2,2,0,0,0,.819-.2V.358h-.831Zm2.552,0h2.923V.358H93.6c.047-.376.424-.813,1.2-1.3.848-.538,1.111-.932,1.111-1.511a1.2,1.2,0,0,0-1.32-1.226,1.665,1.665,0,0,0-1.512.944l.406.251a1.218,1.218,0,0,1,1.082-.729.752.752,0,0,1,.832.8c0,.472-.269.741-.933,1.166C93.3-.509,93.012.089,93.012.729Zm5.111.1c1.016,0,1.608-.526,1.608-1.177s-.425-.963-1.142-1.273c.6-.269.938-.562.938-1.076,0-.544-.484-1.088-1.4-1.088-.9,0-1.417.538-1.417,1.088s.353.825.932,1.094C96.946-1.22,96.5-.868,96.5-.258c0,.663.6,1.177,1.62,1.177m.024-2.642c-.634-.275-.926-.466-.926-.873,0-.335.3-.657.9-.657.622,0,.9.34.9.675,0,.389-.257.58-.873.855M98.123.483c-.645,0-1.094-.316-1.094-.77s.34-.706,1.057-1.029c.73.306,1.124.562,1.124,1.029s-.448.77-1.088.77m2.361,1.567a3.629,3.629,0,0,0,1.495-2.869,3.619,3.619,0,0,0-1.495-2.869l-.24.257a3.543,3.543,0,0,1,1.177,2.612A3.578,3.578,0,0,1,100.239,1.8Z" transform="translate(1.338 4.584)" fill="#00adc2"/>
        </g>
      </g>
      <g id="Group_911" data-name="Group 911" transform="translate(101.501 20.269)">
        <path id="Path_266" data-name="Path 266" d="M.452,0-1.03,1.3-2.512,0" transform="translate(2.512)" fill="none" stroke="#00adc2" stroke-linecap="round" stroke-miterlimit="10" stroke-width="0.5"/>
      </g>
      <g id="Group_912" data-name="Group 912" transform="translate(102.983 17.123)">
        <path id="Path_267" data-name="Path 267" d="M0,0V4.408" fill="none" stroke="#00adc2" stroke-linecap="round" stroke-miterlimit="10" stroke-width="0.5"/>
      </g>
      <g id="Group_913" data-name="Group 913" transform="translate(105.055 20.269)">
        <path id="Path_268" data-name="Path 268" d="M.452,0-1.03,1.3-2.512,0" transform="translate(2.512)" fill="none" stroke="#00adc2" stroke-linecap="round" stroke-miterlimit="10" stroke-width="0.5"/>
      </g>
      <g id="Group_914" data-name="Group 914" transform="translate(106.537 17.123)">
        <path id="Path_269" data-name="Path 269" d="M0,0V4.408" fill="none" stroke="#00adc2" stroke-linecap="round" stroke-miterlimit="10" stroke-width="0.5"/>
      </g>
      <g id="Group_915" data-name="Group 915" transform="translate(101.501 31.029)">
        <path id="Path_270" data-name="Path 270" d="M.452,0-1.03,1.3-2.512,0" transform="translate(2.512)" fill="none" stroke="#00adc2" stroke-linecap="round" stroke-miterlimit="10" stroke-width="0.5"/>
      </g>
      <g id="Group_916" data-name="Group 916" transform="translate(102.983 27.882)">
        <path id="Path_271" data-name="Path 271" d="M0,0V4.408" fill="none" stroke="#00adc2" stroke-linecap="round" stroke-miterlimit="10" stroke-width="0.5"/>
      </g>
      <g id="Group_917" data-name="Group 917" transform="translate(101.501 41.788)">
        <path id="Path_272" data-name="Path 272" d="M.452,0-1.03,1.3-2.512,0" transform="translate(2.512)" fill="none" stroke="#00adc2" stroke-linecap="round" stroke-miterlimit="10" stroke-width="0.5"/>
      </g>
      <g id="Group_918" data-name="Group 918" transform="translate(102.983 38.641)">
        <path id="Path_273" data-name="Path 273" d="M0,0V4.408" fill="none" stroke="#00adc2" stroke-linecap="round" stroke-miterlimit="10" stroke-width="0.5"/>
      </g>
      <g id="Group_919" data-name="Group 919" transform="translate(101.501 52.547)">
        <path id="Path_274" data-name="Path 274" d="M.452,0-1.03,1.3-2.512,0" transform="translate(2.512)" fill="none" stroke="#00adc2" stroke-linecap="round" stroke-miterlimit="10" stroke-width="0.5"/>
      </g>
      <g id="Group_920" data-name="Group 920" transform="translate(102.983 49.4)">
        <path id="Path_275" data-name="Path 275" d="M0,0V4.408" fill="none" stroke="#00adc2" stroke-linecap="round" stroke-miterlimit="10" stroke-width="0.5"/>
      </g>
      <g id="Group_921" data-name="Group 921" transform="translate(101.501 63.306)">
        <path id="Path_276" data-name="Path 276" d="M.452,0-1.03,1.3-2.512,0" transform="translate(2.512)" fill="none" stroke="#00adc2" stroke-linecap="round" stroke-miterlimit="10" stroke-width="0.5"/>
      </g>
      <g id="Group_922" data-name="Group 922" transform="translate(102.983 60.16)">
        <path id="Path_277" data-name="Path 277" d="M0,0V4.408" fill="none" stroke="#00adc2" stroke-linecap="round" stroke-miterlimit="10" stroke-width="0.5"/>
      </g>
      <g id="Group_926" data-name="Group 926" clip-path="url(#clip-path)">
        <g id="Group_925" data-name="Group 925" transform="translate(6.605 16.401)" opacity="0.2">
          <g id="Group_924" data-name="Group 924">
            <g id="Group_923" data-name="Group 923" clip-path="url(#clip-path-4)">
              <path id="Path_278" data-name="Path 278" d="M14.6-46.637H125.627V-55.49H14.6Z" transform="translate(-3.98 64.928)" fill="#00adc2"/>
            </g>
          </g>
        </g>
      </g>
    </g>
  </g>
</svg>
