<svg xmlns="http://www.w3.org/2000/svg" width="61.734" height="78.102" viewBox="0 0 61.734 78.102">
  <g id="km_nebenwirkungen_illu_lw01" transform="translate(-133.963 -99.195)">
    <path id="Path_300" data-name="Path 300" d="M188.109,125.947v-5.2c-.18-14.3-12.124-19.977-23.186-20.052s-23.258,4.66-23.456,19.94v5.2s-7.422-6.108-5.765,7.241c.919,7.427,5.459,7.8,5.459,7.8l2.72,10.843c3.747,15.076,13.782,20.535,21.042,20.664s17.691-4.846,21.258-20.664l2.216-10.731s4.324-.316,5.459-7.8C195.91,119.875,188.109,125.947,188.109,125.947Z" transform="translate(0)" fill="none" stroke="#00adc2" stroke-miterlimit="10" stroke-width="3"/>
    <path id="Path_301" data-name="Path 301" d="M215.3,218.009c-.08-4.609,9.837-.918,11.773-4.609" transform="translate(-65.796 -91.864)" fill="none" stroke="#00adc2" stroke-miterlimit="10" stroke-width="3"/>
    <path id="Path_302" data-name="Path 302" d="M330.073,218.009c.08-4.609-9.837-.918-11.773-4.609" transform="translate(-150.683 -91.864)" fill="none" stroke="#00adc2" stroke-miterlimit="10" stroke-width="3"/>
    <path id="Path_303" data-name="Path 303" d="M215.673,250.58c-.3,4.949,9.558,5.328,9.658-.08" transform="translate(-66.028 -122.083)" fill="none" stroke="#00adc2" stroke-miterlimit="10" stroke-width="3"/>
    <path id="Path_304" data-name="Path 304" d="M329.073,250.58c-.3,4.949,9.558,5.328,9.658-.08" transform="translate(-159.382 -122.083)" fill="none" stroke="#00adc2" stroke-miterlimit="10" stroke-width="3"/>
    <path id="Path_305" data-name="Path 305" d="M273.5,331.48c-.12,4.091,9.4,4.27,9.219-.08" transform="translate(-113.608 -187.98)" fill="none" stroke="#00adc2" stroke-miterlimit="10" stroke-width="3"/>
    <circle id="Ellipse_69" data-name="Ellipse 69" cx="2.574" cy="2.574" r="2.574" transform="translate(145.213 140.061)" fill="#00adc2"/>
    <path id="Path_306" data-name="Path 306" d="M267.91,372.492a4.571,4.571,0,0,1-4.558,4.6,4.525,4.525,0,0,1-4.558-4.6c.074-3.241,4.68-7.892,4.68-7.892S267.91,369.2,267.91,372.492Z" transform="translate(-101.421 -213.651)" fill="#00adc2" stroke="#fff" stroke-miterlimit="10" stroke-width="3"/>
    <path id="Path_348" data-name="Path 348" d="M267.91,372.492a4.571,4.571,0,0,1-4.558,4.6,4.525,4.525,0,0,1-4.558-4.6c.074-3.241,4.68-7.892,4.68-7.892S267.91,369.2,267.91,372.492Z" transform="translate(-94.361 -201.296)" fill="#00adc2" stroke="#fff" stroke-miterlimit="10" stroke-width="3"/>
    <circle id="Ellipse_70" data-name="Ellipse 70" cx="2.574" cy="2.574" r="2.574" transform="translate(176.217 153.034)" fill="#00adc2"/>
    <circle id="Ellipse_71" data-name="Ellipse 71" cx="2.574" cy="2.574" r="2.574" transform="translate(166.489 114.335)" fill="#00adc2"/>
    <circle id="Ellipse_72" data-name="Ellipse 72" cx="2.574" cy="2.574" r="2.574" transform="translate(151.228 105.665)" fill="#00adc2"/>
    <circle id="Ellipse_73" data-name="Ellipse 73" cx="2.574" cy="2.574" r="2.574" transform="translate(176.056 109.656)" fill="#00adc2"/>
  </g>
</svg>
