<svg xmlns="http://www.w3.org/2000/svg" width="68.723" height="86.016" viewBox="0 0 68.723 86.016">
  <g id="Group_2000" data-name="Group 2000" transform="translate(-1494.063 -391.953)">
    <g id="Group_1998" data-name="Group 1998" transform="translate(1496.834 397.228) rotate(-9)">
      <path id="Pfad_357" d="M203.75,178.3a2.774,2.774,0,0,1,2.775,2.751,2.941,2.941,0,0,1-.606,1.749,2.651,2.651,0,0,1-2.145,1.026,2.763,2.763,0,1,1-.023-5.526Z" transform="translate(-197.898 -172.611)" fill="none" stroke="#00aec2" stroke-width="2"/>
      <path id="Pfad_357_2_" d="M203.75,215.5a2.774,2.774,0,0,1,2.775,2.751,2.941,2.941,0,0,1-.606,1.749,2.651,2.651,0,0,1-2.145,1.026,2.763,2.763,0,1,1-.023-5.526Z" transform="translate(-197.898 -201.138)" fill="none" stroke="#00aec2" stroke-width="2"/>
      <path id="Pfad_357_3_" d="M246.45,215.5a2.774,2.774,0,0,1,2.775,2.751,2.941,2.941,0,0,1-.606,1.749,2.651,2.651,0,0,1-2.145,1.026,2.766,2.766,0,0,1-2.775-2.775A2.727,2.727,0,0,1,246.45,215.5Z" transform="translate(-230.642 -201.138)" fill="none" stroke="#00aec2" stroke-width="2"/>
      <path id="Pfad_357_5_" d="M203.75,251.4a2.774,2.774,0,0,1,2.775,2.751,2.941,2.941,0,0,1-.606,1.749,2.651,2.651,0,0,1-2.145,1.026,2.763,2.763,0,0,1-.023-5.526Z" transform="translate(-197.898 -228.668)" fill="none" stroke="#00aec2" stroke-width="2"/>
      <path id="Pfad_357_4_" d="M246.45,251.4a2.774,2.774,0,0,1,2.775,2.751,2.941,2.941,0,0,1-.606,1.749,2.651,2.651,0,0,1-2.145,1.026,2.766,2.766,0,0,1-2.775-2.775A2.727,2.727,0,0,1,246.45,251.4Z" transform="translate(-230.642 -228.668)" fill="none" stroke="#00aec2" stroke-width="2"/>
      <path id="Pfad_357_7_" d="M203.75,285.7a2.774,2.774,0,0,1,2.775,2.751,2.941,2.941,0,0,1-.606,1.749,2.651,2.651,0,0,1-2.145,1.026,2.763,2.763,0,1,1-.023-5.526Z" transform="translate(-197.898 -254.971)" fill="none" stroke="#00aec2" stroke-width="2"/>
      <path id="Pfad_357_6_" d="M246.45,285.7a2.774,2.774,0,0,1,2.775,2.751,2.941,2.941,0,0,1-.606,1.749,2.651,2.651,0,0,1-2.145,1.026,2.763,2.763,0,1,1-.023-5.526Z" transform="translate(-230.642 -254.971)" fill="none" stroke="#00aec2" stroke-width="2"/>
      <path id="Pfad_357_1_" d="M246.45,178.3a2.774,2.774,0,0,1,2.775,2.751,2.941,2.941,0,0,1-.606,1.749,2.651,2.651,0,0,1-2.145,1.026,2.763,2.763,0,1,1-.023-5.526Z" transform="translate(-230.642 -172.611)" fill="none" stroke="#00aec2" stroke-width="2"/>
      <path id="Path_507" data-name="Path 507" d="M207.444,196.077h-15.66a3.951,3.951,0,0,1-4.084-3.8V157.7a3.951,3.951,0,0,1,4.084-3.8h15.66a3.951,3.951,0,0,1,4.084,3.8v34.576A3.951,3.951,0,0,1,207.444,196.077Z" transform="translate(-188.768 -153.9)" fill="none" stroke="#00aec2" stroke-miterlimit="10" stroke-width="3"/>
    </g>
    <g id="Group_1999" data-name="Group 1999" transform="matrix(0.883, 0.469, -0.469, 0.883, 1542.534, 406.514)">
      <rect id="Rectangle_789" data-name="Rectangle 789" width="12.474" height="38.354" transform="translate(4.477 9.396)" fill="none" stroke="#00aec2" stroke-width="3"/>
      <path id="Path_508" data-name="Path 508" d="M366.441,329.815h-6.528L358.7,323.8h9.093Z" transform="translate(-352.545 -276.074)" fill="none" stroke="#00aec2" stroke-width="2"/>
      <rect id="Rectangle_790" data-name="Rectangle 790" width="1.492" height="20.401" transform="translate(9.956 54.441)" fill="#00aec2"/>
      <rect id="Rectangle_791" data-name="Rectangle 791" width="21.403" height="3.148" transform="translate(0 0)" fill="none" stroke="#00aec2" stroke-miterlimit="10" stroke-width="2"/>
      <rect id="Rectangle_792" data-name="Rectangle 792" width="3.474" height="6.015" transform="translate(8.976 3.241)" fill="none" stroke="#00aec2" stroke-miterlimit="10" stroke-width="2"/>
      <path id="Path_509" data-name="Path 509" d="M383.741,185.369h-5.316a.738.738,0,1,1,0-1.469h5.316Z" transform="translate(-367.048 -168.792)" fill="#00aec2"/>
      <path id="Path_510" data-name="Path 510" d="M383.741,220.569h-5.316a.738.738,0,1,1,0-1.469h5.316Z" transform="translate(-367.048 -195.785)" fill="#00aec2"/>
      <path id="Path_511" data-name="Path 511" d="M383.741,255.669h-5.316a.738.738,0,1,1,0-1.469h5.316Z" transform="translate(-367.048 -222.701)" fill="#00aec2"/>
      <path id="Path_512" data-name="Path 512" d="M383.741,290.869h-5.316a.738.738,0,1,1,0-1.469h5.316Z" transform="translate(-367.048 -249.694)" fill="#00aec2"/>
      <path id="Path_513" data-name="Path 513" d="M391.992,202.839h-4.407a.776.776,0,0,1,0-1.539h4.407Z" transform="translate(-374.179 -182.135)" fill="#00aec2"/>
      <path id="Path_514" data-name="Path 514" d="M391.992,238.039h-4.407a.776.776,0,0,1,0-1.539h4.407Z" transform="translate(-374.179 -209.128)" fill="#00aec2"/>
      <path id="Path_515" data-name="Path 515" d="M391.992,273.239h-4.407a.776.776,0,0,1,0-1.539h4.407Z" transform="translate(-374.179 -236.121)" fill="#00aec2"/>
    </g>
  </g>
</svg>
