<svg xmlns="http://www.w3.org/2000/svg" width="73.194" height="41.789" viewBox="0 0 73.194 41.789">
  <g id="Component_11_1" data-name="Component 11 – 1" transform="translate(1.75 1.75)">
    <g id="Group_3370" data-name="Group 3370" transform="translate(-121 -385.61)">
      <g id="Group_3360" data-name="Group 3360" transform="translate(-438 -201)">
        <path id="Path_357" data-name="Path 357" d="M6.774,0a6.911,6.911,0,0,1,5.372,2.647,6.532,6.532,0,0,1,1.4,4.127,6.959,6.959,0,0,1-1.509,4.263,6.613,6.613,0,0,1-5.265,2.511A6.774,6.774,0,1,1,6.774,0Z" transform="translate(603.985 586.858)" fill="none" stroke="#00aec2" stroke-width="3.5"/>
        <path id="Path_349" data-name="Path 349" d="M364.5,254.859v-1.054c0-4.714.12-15.536,10.972-15.805h12.78c12.036.137,12.224,8.437,12.224,15.805v1.054" transform="translate(228.218 368.138)" fill="none" stroke="#00aec2" stroke-width="3.5"/>
        <path id="Path_350" data-name="Path 350" d="M370.6,264.885v-2.258c.151-1.2.151-2.559,1.054-3.462,1.054-1.054,14.9-1.054,16.106,0,.9.6.753,2.258.753,3.462v2.258" transform="translate(231.3 358.153)" fill="#fff" stroke="#00aec2" stroke-width="4"/>
        <rect id="Rectangle_778" data-name="Rectangle 778" width="13.698" height="17.106" transform="translate(604.007 609.394)" fill="#fff" stroke="#fff" stroke-width="0.3"/>
        <rect id="Rectangle_779" data-name="Rectangle 779" width="24.084" height="34.019" transform="translate(559 586.61)" fill="#fff" stroke="#00aec2" stroke-width="3.5"/>
        <rect id="Rectangle_780" data-name="Rectangle 780" width="11.289" height="2.408" transform="translate(565.473 593.836)" fill="#00aec2"/>
        <rect id="Rectangle_781" data-name="Rectangle 781" width="11.289" height="2.408" transform="translate(565.473 599.706)" fill="#00aec2"/>
        <rect id="Rectangle_782" data-name="Rectangle 782" width="11.289" height="2.408" transform="translate(565.473 605.125)" fill="#00aec2"/>
        <rect id="Rectangle_783" data-name="Rectangle 783" width="11.289" height="2.408" transform="translate(565.473 610.845)" fill="#00aec2"/>
      </g>
    </g>
  </g>
</svg>
