<svg xmlns="http://www.w3.org/2000/svg" width="53.449" height="57.925" viewBox="0 0 53.449 57.925">
  <g id="Component_11_1" data-name="Component 11 – 1" transform="translate(1.5 1.5)">
    <g id="Group_3362" data-name="Group 3362" transform="translate(-1149 -371.499)">
      <g id="Group_3361" data-name="Group 3361" transform="translate(0.5 4)">
        <path id="Subtraction_6" data-name="Subtraction 6" d="M13.671,47.653h0A25.234,25.234,0,0,1,15.409,1.984,25.242,25.242,0,0,1,48.465,15.406a25.216,25.216,0,0,1-5.4,27.655,25.3,25.3,0,0,1-5.927,4.406l-4.555-13.26A11.275,11.275,0,1,0,17.5,33.435a11.337,11.337,0,0,0,.859.777l-4.69,13.441Z" transform="translate(1148.5 367.499)" fill="#fff" stroke="#00aec2" stroke-width="3"/>
        <path id="Path_616" data-name="Path 616" d="M-23284.309-19797.318h9.117l9.73,26.691h-28.426Z" transform="translate(24453.555 20193.051)" fill="none" stroke="#00aec2" stroke-width="3"/>
      </g>
      <g id="Ellipse_322" data-name="Ellipse 322" transform="translate(1172 376)" fill="#fff" stroke="#00aec2" stroke-width="3">
        <circle cx="2.5" cy="2.5" r="2.5" stroke="none"/>
        <circle cx="2.5" cy="2.5" r="1" fill="none"/>
      </g>
    </g>
  </g>
</svg>
