<svg xmlns="http://www.w3.org/2000/svg" width="43.714" height="56.385" viewBox="0 0 43.714 56.385">
  <defs>
    <style>
      .cls-1, .cls-3 {
        fill: none;
      }

      .cls-1, .cls-2 {
        stroke: #00adc2;
      }

      .cls-1, .cls-2, .cls-3 {
        stroke-miterlimit: 10;
        stroke-width: 3px;
      }

      .cls-2 {
        fill: #fff;
      }

      .cls-3 {
        stroke: #00adc1;
      }

      .cls-4 {
        fill: #00adc2;
      }
    </style>
  </defs>
  <g id="Group_2035" data-name="Group 2035" transform="translate(-1085.903 -947.5)">
    <path id="Path_611" data-name="Path 611" class="cls-1" d="M153.4,126.849c4.767.083,11.615-3.087,13.957-13.165l1.455-6.837s4.807.149,4.839-5.189c.051-7.461-5.028-4.392-5.028-4.392V93.715c.615-9.108-3.489-15.315-15.211-15.315S137.247,84.607,138,93.715v3.551s-5.447-2.783-5.039,4.392a5.278,5.278,0,0,0,4.838,5.106l1.786,6.908c2.46,9.616,9.049,13.094,13.815,13.177" transform="translate(954.461 875.188)"/>
    <path id="Path_612" data-name="Path 612" class="cls-1" d="M215.77,253.912c-.177-2.933,5.666-3.158,5.725.047" transform="translate(882.42 720.445)"/>
    <path id="Path_613" data-name="Path 613" class="cls-1" d="M334.891,253.912c.177-2.933-5.666-3.158-5.725.047" transform="translate(782.433 720.445)"/>
    <path id="Path_614" data-name="Path 614" class="cls-2" d="M214.093,318.755c-.71,6.295-10.367,12.717-14.834,12.717s-13.517-6.455-14.756-12.717c-.968-4.889,10.276-11.855,14.756-11.855S214.648,313.834,214.093,318.755Z" transform="translate(908.794 670.913)"/>
    <g id="Ebene_2" transform="translate(1093.237 964.426)">
      <path id="Path_529" data-name="Path 529" class="cls-3" d="M190.2,119.45h29.2" transform="translate(-190.2 -119.45)"/>
    </g>
    <g id="Group_2034" data-name="Group 2034">
      <ellipse id="Ellipse_114" data-name="Ellipse 114" class="cls-2" cx="8.363" cy="8.363" rx="8.363" ry="8.363" transform="translate(1099.432 949)"/>
      <ellipse id="Ellipse_115" data-name="Ellipse 115" class="cls-4" cx="1.053" cy="1.053" rx="1.053" ry="1.053" transform="translate(1106.742 956.31)"/>
    </g>
  </g>
</svg>
