<svg xmlns="http://www.w3.org/2000/svg" id="artboard-svg" width="69" height="70" viewBox="0 0 69 70">
  <defs>
    <style>.cls-1, .cls-10, .cls-11, .cls-15, .cls-18, .cls-24, .cls-26, .cls-29, .cls-30, .cls-41, .cls-43, .cls-47 {
      fill: none; } .cls-2 { clip-path: url(#clip-car_m_02_-_01); } .cls-3 { fill: #f8f8f8; } .cls-14, .cls-20, .cls-22,
      .cls-27, .cls-32, .cls-35, .cls-38, .cls-39, .cls-4, .cls-42, .cls-45, .cls-48, .cls-51, .cls-6 { fill: #fff; }
      .cls-33, .cls-5 { fill: #00aec2; } .cls-23, .cls-6 { font-size: 22px; } .cls-16, .cls-20, .cls-6 { font-family:
      Roboto-Bold, Roboto; } .cls-16, .cls-20, .cls-22, .cls-23, .cls-27, .cls-28, .cls-31, .cls-33, .cls-35, .cls-37,
      .cls-6 { font-weight: 700; } .cls-7 { clip-path: url(#clip-path); } .cls-8, .cls-9 { fill: #06060b; } .cls-9 {
      fill-rule: evenodd; } .cls-10, .cls-11, .cls-24 { stroke: #000; } .cls-10 { stroke-width: 2px; } .cls-11, .cls-18,
      .cls-26, .cls-38, .cls-39, .cls-41, .cls-42, .cls-43, .cls-45, .cls-47 { stroke-width: 3px; } .cls-12 { font-size:
      27px; font-family: NeoSans, Neo Sans; } .cls-13 { font-family: NeoSans-Medium, Neo Sans; font-weight: 500; }
      .cls-14 { font-size: 14px; font-family: NeoSans-Black, Neo Sans; font-weight: 800; } .cls-15 { stroke: #999; }
      .cls-15, .cls-28, .cls-29, .cls-31, .cls-34 { stroke-width: 4px; } .cls-16, .cls-17 { fill: #999; } .cls-16,
      .cls-27 { font-size: 15px; } .cls-18 { stroke: #fff; } .cls-19 { font-size: 60px; } .cls-19, .cls-25, .cls-40,
      .cls-46 { font-family: BentonSansLight, BentonSans; font-weight: 300; } .cls-20 { font-size: 40px; } .cls-21 {
      clip-path: url(#clip-path-2); } .cls-22 { font-size: 10px; } .cls-22, .cls-23, .cls-27, .cls-28, .cls-31, .cls-33,
      .cls-35, .cls-37 { font-family: BentonSansBold, BentonSans; } .cls-25 { fill: #b2b2b2; } .cls-25, .cls-36,
      .cls-40, .cls-46 { font-size: 18px; } .cls-26, .cls-39 { stroke: #b2e7ed; } .cls-28, .cls-31, .cls-50 { fill:
      #6ed1dc; } .cls-28, .cls-31 { stroke: rgba(0,0,0,0); } .cls-28, .cls-31, .cls-33, .cls-35 { font-size: 20px; }
      .cls-29 { stroke: #6ed1dc; } .cls-31 { letter-spacing: -0.05em; } .cls-34 { fill: #020202; stroke: #020202; }
      .cls-36 { font-family: BentonSans; } .cls-38, .cls-47, .cls-48 { stroke: #00aec2; } .cls-40 {
      fill: #070606; } .cls-41, .cls-42 { stroke: #00adc2; } .cls-41, .cls-42, .cls-43, .cls-48 { stroke-miterlimit: 10;
      } .cls-43 { stroke: #00adc1; } .cls-44 { fill: #00adc2; } .cls-45 { stroke: #ebebeb; } .cls-49, .cls-50, .cls-51 {
      stroke: none; }
    </style>
    <clipPath id="clip-path">
      <path id="Pfad_50" d="M0-101.881h143v66.21H0z" class="cls-1" data-name="Pfad 50"
            transform="translate(0 101.881)"/>
    </clipPath>
    <clipPath id="clip-path-2">
      <path d="M0 0h60v20H0z" class="cls-1"/>
    </clipPath>
    <clipPath id="clip-car_m_02_-_01">
      <path d="M0 0h1920v1080H0z"/>
    </clipPath>
  </defs>
  <g transform="translate(-121 -375)">
    <g id="car_m_02_-_01" class="cls-2" data-name="car_m_02 - 01">
      <g id="Gruppe_2035" data-name="Gruppe 2035" transform="translate(-308 -205)">
        <path id="Rechteck_784" d="M0 0h16v22.6H0z" class="cls-38" data-name="Rechteck 784"
              transform="translate(430 590.7)"/>
        <path id="Rechteck_785-2" d="M0 0h7.5v1.6H0z" class="cls-5" data-name="Rechteck 785"
              transform="translate(434.3 595.5)"/>
        <path id="Rechteck_786-2" d="M0 0h7.5v1.6H0z" class="cls-5" data-name="Rechteck 786"
              transform="translate(434.3 599.4)"/>
        <path id="Rechteck_787-2" d="M0 0h7.5v1.6H0z" class="cls-5" data-name="Rechteck 787"
              transform="translate(434.3 602.9)"/>
        <path id="Rechteck_788-2" d="M0 0h7.5v1.6H0z" class="cls-5" data-name="Rechteck 788"
              transform="translate(434.3 606.7)"/>
        <circle id="Ellipse_79" cx="6" cy="6" r="6" class="cls-4" data-name="Ellipse 79"
                transform="translate(477.185 583.4)"/>
        <circle id="Ellipse_80" cx="4.5" cy="4.5" r="4.5" class="cls-47" data-name="Ellipse 80"
                transform="translate(478.685 584.9)"/>
        <path id="Pfad_351"
              d="M264.8 236.3h2.9a12.035 12.035 0 0 1 12 12v.7a12.035 12.035 0 0 1-12 12h-2.9a12.035 12.035 0 0 1-12-12v-.7a12.035 12.035 0 0 1 12-12z"
              class="cls-4" data-name="Pfad 351" transform="translate(216.9 360.573)"/>
        <path id="Pfad_352"
              d="M264.8 237.8h2.9a10.5 10.5 0 0 1 10.5 10.5v.7a10.5 10.5 0 0 1-10.5 10.5h-2.9a10.5 10.5 0 0 1-10.5-10.5v-.7a10.5 10.5 0 0 1 10.5-10.5z"
              class="cls-47" data-name="Pfad 352" transform="translate(216.9 360.573)"/>
        <g id="Rechteck_345" transform="translate(222.888 367.309)">
          <path id="Pfad_353"
                d="M257.3 236.3a4.481 4.481 0 0 1 4.5 4.5v35.9a4.481 4.481 0 0 1-4.5 4.5 4.481 4.481 0 0 1-4.5-4.5v-35.9a4.546 4.546 0 0 1 4.5-4.5z"
                class="cls-4" data-name="Pfad 353"/>
          <path id="Pfad_354"
                d="M257.3 237.8a2.946 2.946 0 0 1 3 3v35.9a2.946 2.946 0 0 1-3 3 2.946 2.946 0 0 1-3-3v-35.9a3.009 3.009 0 0 1 3-3z"
                class="cls-47" data-name="Pfad 354"/>
        </g>
        <g id="Rechteck_347" transform="translate(228.876 367.309)">
          <path id="Pfad_355"
                d="M257.3 236.3a4.481 4.481 0 0 1 4.5 4.5v35.9a4.481 4.481 0 0 1-4.5 4.5 4.481 4.481 0 0 1-4.5-4.5v-35.9a4.546 4.546 0 0 1 4.5-4.5z"
                class="cls-4" data-name="Pfad 355"/>
          <path id="Pfad_356"
                d="M257.3 237.8a2.946 2.946 0 0 1 3 3v35.9a2.946 2.946 0 0 1-3 3 2.946 2.946 0 0 1-3-3v-35.9a3.009 3.009 0 0 1 3-3z"
                class="cls-47" data-name="Pfad 356"/>
        </g>
        <path id="Rechteck_348" d="M0 0h9v21.7H0z" class="cls-4" transform="translate(478.7 602.2)"/>
        <circle id="Ellipse_81" cx="3.7" cy="3.7" r="3.7" class="cls-48" data-name="Ellipse 81"
                transform="translate(475.3 581)"/>
        <circle id="Ellipse_82" cx="3.7" cy="3.7" r="3.7" class="cls-48" data-name="Ellipse 82"
                transform="translate(473.6 626.5)"/>
        <circle id="Ellipse_83" cx="3.7" cy="3.7" r="3.7" class="cls-48" data-name="Ellipse 83"
                transform="translate(471.1 596.4)"/>
        <path id="Linie_106" d="M28.9 0L0 15.9" class="cls-48" data-name="Linie 106"
              transform="translate(446.4 585.5)"/>
        <path id="Linie_107" d="M24.7 0L0 1.3" class="cls-48" data-name="Linie 107" transform="translate(446.4 600.1)"/>
        <path id="Linie_108" d="M26.7 28.8L0 0" class="cls-48" data-name="Linie 108"
              transform="translate(446.9 601.4)"/>
      </g>
    </g>
  </g>
</svg>
