
<svg xmlns="http://www.w3.org/2000/svg" id="artboard-svg" width="72" height="40" viewBox="0 0 72 40"><defs><style>.cls-1, .cls-13, .cls-16, .cls-24, .cls-25, .cls-39, .cls-44, .cls-46, .cls-48, .cls-51, .cls-8, .cls-9 { fill: none; } .cls-2 { clip-path: url(#clip-_1._car_m_02); } .cls-3 { fill: #f8f8f8; } .cls-12, .cls-18, .cls-20, .cls-21, .cls-27, .cls-30, .cls-35, .cls-36, .cls-38, .cls-4, .cls-40, .cls-43, .cls-45, .cls-55, .cls-6 { fill: #fff; } .cls-28, .cls-5 { fill: #00aec2; } .cls-22, .cls-6 { font-size: 22px; } .cls-14, .cls-18, .cls-6 { font-family: Roboto-Bold, Roboto; } .cls-14, .cls-18, .cls-20, .cls-21, .cls-22, .cls-23, .cls-26, .cls-28, .cls-30, .cls-32, .cls-45, .cls-6 { font-weight: 700; } .cls-41, .cls-47, .cls-50, .cls-7 { fill: #f5f5f5; } .cls-44, .cls-8, .cls-9 { stroke: #000; } .cls-8 { stroke-width: 2px; } .cls-16, .cls-36, .cls-43, .cls-46, .cls-47, .cls-48, .cls-50, .cls-51, .cls-9 { stroke-width: 3px; } .cls-10 { font-size: 27px; font-family: NeoSans, Neo Sans; } .cls-11 { font-family: NeoSans-Medium, Neo Sans; font-weight: 500; } .cls-12 { font-size: 14px; font-family: NeoSans-Black, Neo Sans; font-weight: 800; } .cls-13 { stroke: #999; } .cls-13, .cls-23, .cls-24, .cls-26, .cls-29, .cls-40 { stroke-width: 4px; } .cls-14, .cls-15 { fill: #999; } .cls-14, .cls-21 { font-size: 15px; } .cls-16 { stroke: #fff; } .cls-17 { font-size: 60px; } .cls-17, .cls-37 { font-family: BentonSansLight, Benton Sans; font-weight: 300; } .cls-18 { font-size: 40px; } .cls-19 { clip-path: url(#clip-path); } .cls-20 { font-size: 10px; } .cls-20, .cls-21, .cls-22, .cls-23, .cls-26, .cls-28, .cls-30, .cls-32, .cls-45 { font-family: BentonSansBold, Benton Sans; } .cls-23, .cls-26, .cls-54 { fill: #6ed1dc; } .cls-23, .cls-26 { stroke: rgba(0,0,0,0); } .cls-23, .cls-26, .cls-28, .cls-30 { font-size: 20px; } .cls-24 { stroke: #6ed1dc; } .cls-26 { letter-spacing: -0.05em; } .cls-29 { fill: #020202; stroke: #020202; } .cls-31, .cls-35, .cls-37 { font-size: 18px; } .cls-31, .cls-35 { font-family: BentonSans; } .cls-33 { fill: #1d1d1b; } .cls-34 { fill: #1caec2; } .cls-36, .cls-39, .cls-40, .cls-41, .cls-50, .cls-51 { stroke: #00aec2; } .cls-38 { stroke-linejoin: bevel; } .cls-39, .cls-41 { stroke-width: 3.5px; } .cls-42 { opacity: 0.3; } .cls-43 { stroke: #ebebeb; } .cls-45 { font-size: 21px; } .cls-46, .cls-47 { stroke: #00adc2; } .cls-46, .cls-47, .cls-48 { stroke-miterlimit: 10; } .cls-48 { stroke: #00adc1; } .cls-49 { fill: #00adc2; } .cls-52 { fill: #dfdfdf; } .cls-53, .cls-54, .cls-55 { stroke: none; }</style><clipPath id="clip-path"><path d="M0 0h60v20H0z" class="cls-1"/></clipPath><clipPath id="clip-_1._car_m_02"><path d="M0 0h1920v1080H0z"/></clipPath></defs><g transform="translate(-145 -474)"><g id="_1._car_m_02" class="cls-2" data-name="1. car_m_02"><g id="icon"><g id="Gruppe_3775" data-name="Gruppe 3775" transform="translate(-413 -111.611)"><path id="Pfad_357" d="M6.774 0a6.911 6.911 0 0 1 5.372 2.647 6.532 6.532 0 0 1 1.4 4.127 6.959 6.959 0 0 1-1.509 4.263 6.613 6.613 0 0 1-5.265 2.511A6.774 6.774 0 1 1 6.774 0z" class="cls-39" data-name="Pfad 357" transform="translate(603.985 586.858)"/><path id="Pfad_349" d="M364.5 254.859v-1.054c0-4.714.12-15.536 10.972-15.805h12.78c12.036.137 12.224 8.437 12.224 15.805v1.054" class="cls-39" data-name="Pfad 349" transform="translate(228.218 368.138)"/><path id="Pfad_350" d="M370.6 264.885v-2.258c.151-1.2.151-2.559 1.054-3.462 1.054-1.054 14.9-1.054 16.106 0 .9.6.753 2.258.753 3.462v2.258" class="cls-40" data-name="Pfad 350" transform="translate(231.3 358.153)"/><path id="Rechteck_778" d="M0 0h13.698v14.106H0z" class="cls-7" data-name="Rechteck 778" transform="translate(604.007 609.394)"/><path id="Rechteck_779" d="M0 0h24.084v34.019H0z" class="cls-41" data-name="Rechteck 779" transform="translate(559 586.61)"/><path id="Rechteck_780" d="M0 0h11.289v2.408H0z" class="cls-5" data-name="Rechteck 780" transform="translate(565.473 593.836)"/><path id="Rechteck_781" d="M0 0h11.289v2.408H0z" class="cls-5" data-name="Rechteck 781" transform="translate(565.473 599.706)"/><path id="Rechteck_782" d="M0 0h11.289v2.408H0z" class="cls-5" data-name="Rechteck 782" transform="translate(565.473 605.125)"/><path id="Rechteck_783" d="M0 0h11.289v2.408H0z" class="cls-5" data-name="Rechteck 783" transform="translate(565.473 610.845)"/></g></g></g></g></svg>