<svg xmlns="http://www.w3.org/2000/svg" xmlns:xlink="http://www.w3.org/1999/xlink" width="30" height="20" viewBox="0 0 30 20">
  <defs>
    <style>
      .cls-1 {
        fill: #00aec2;
      }

      .cls-2 {
        clip-path: url(#clip-path);
      }
    </style>
    <clipPath id="clip-path">
      <path id="Path_977" data-name="Path 977" class="cls-1" d="M0,4H30V-16H0Z" transform="translate(0 16)"/>
    </clipPath>
  </defs>
  <g id="Group_3698" data-name="Group 3698" transform="translate(-1378 -800)">
    <g id="Group_3119" data-name="Group 3119" transform="translate(1378 816)">
      <g id="Group_3117" data-name="Group 3117" class="cls-2" transform="translate(0 -16)">
        <g id="Group_3115" data-name="Group 3115" transform="translate(12.5 7.5)">
          <path id="Path_975" data-name="Path 975" class="cls-1" d="M.5,0A2.5,2.5,0,1,0,3,2.5,2.5,2.5,0,0,0,.5,0" transform="translate(2)"/>
        </g>
        <g id="Group_3116" data-name="Group 3116">
          <path id="Path_976" data-name="Path 976" class="cls-1" d="M3,0C-5.285,0-12,10-12,10S-5.285,20,3,20,18,10,18,10,11.284,0,3,0M3,16.25A6.25,6.25,0,1,1,9.25,10,6.251,6.251,0,0,1,3,16.25" transform="translate(12)"/>
        </g>
      </g>
    </g>
  </g>
</svg>
