<svg id="search" xmlns="http://www.w3.org/2000/svg" width="20" height="18" viewBox="0 0 20 18"><defs><style>.cls-1{fill:none;}.cls-2{fill:#fff;}</style></defs><path class="cls-1" d="M14,4a4,4,0,1,0-4,4A4,4,0,0,0,14,4ZM2,14v4H18V14c0-2.66-5.33-4-8-4S2,11.34,2,14Z"/><path class="cls-2" d="M10,10c-2.67,0-8,1.34-8,4v4H18V14C18,11.34,12.67,10,10,10Zm6,6H4V14.0058c.04266-.13092.49286-.69586,2.026-1.25513A12.84288,12.84288,0,0,1,10,12a12.84288,12.84288,0,0,1,3.974.75067c1.53314.55927,1.98334,1.12421,2.026,1.25513Z"/><path class="cls-2" d="M10,8A4,4,0,1,0,6,4,3.99891,3.99891,0,0,0,10,8Zm0-6A2,2,0,1,1,8,4,2.00226,2.00226,0,0,1,10,2Z"/></svg>
