<svg id="search" xmlns="http://www.w3.org/2000/svg" width="20" height="18" viewBox="0 0 20 18"><defs><style>.cls-1{fill:#fff;}</style></defs><polygon class="cls-1" points="7.33 12 5 14.33 2.67 12 2 12.67 4.33 15 2 17.33 2.67 18 5 15.67 7.33 18 8 17.33 5.67 15 8 12.67 7.33 12"/><path class="cls-1" d="M10,10v2a12.83271,12.83271,0,0,1,3.974.751c1.533.559,1.983,1.124,2.026,1.255V16H10v2h8V14C18,11.34,12.67,10,10,10Z"/><path class="cls-1" d="M10,8A4,4,0,1,0,6,4,4,4,0,0,0,10,8Zm0-6A2,2,0,1,1,8,4,2,2,0,0,1,10,2Z"/></svg>
