<svg id="search" xmlns="http://www.w3.org/2000/svg" width="20" height="18" viewBox="0 0 20 18"><defs><style>.cls-1{fill:#fff;}</style></defs><path class="cls-1" d="M14.91608,11.321h-.8l-.285-.278A6.7,6.7,0,0,0,8.80206,0a6.635,6.635,0,0,0-6.592,6.175h2.058a4.577,4.577,0,1,1,4.534,5.146,4.27412,4.27412,0,0,1-.509-.051v2.079a4.23473,4.23473,0,0,0,.509.031,6.55478,6.55478,0,0,0,4.31-1.616l.275.288v.813L18.48,18l1.518-1.533Z"/><polygon class="cls-1" points="5.65 8.178 3.18 10.648 0.71 8.178 0 8.888 2.47 11.358 0 13.828 0.71 14.538 3.18 12.068 5.65 14.538 6.36 13.828 3.89 11.358 6.36 8.888 5.65 8.178"/></svg>
