<svg id="Group_1339" data-name="Group 1339" xmlns="http://www.w3.org/2000/svg" width="15" height="15" viewBox="0 0 15 15">
  <path id="Path_285" data-name="Path 285" d="M-6.449-4.914a.769.769,0,0,0,.564-.241.8.8,0,0,0,.238-.583.808.808,0,0,0-.236-.584.762.762,0,0,0-.566-.243.769.769,0,0,0-.568.243.805.805,0,0,0-.238.584.8.8,0,0,0,.238.583.773.773,0,0,0,.568.241m.058-5.671a7.5,7.5,0,0,0-7.5,7.5,7.5,7.5,0,0,0,7.5,7.5,7.5,7.5,0,0,0,7.5-7.5,7.5,7.5,0,0,0-7.5-7.5m0,14.464a6.965,6.965,0,0,1-6.964-6.964,6.964,6.964,0,0,1,6.964-6.964A6.964,6.964,0,0,1,.573-3.085,6.964,6.964,0,0,1-6.391,3.879m.956-3.928A.382.382,0,0,1-5.61-.213.544.544,0,0,1-5.672-.48V-4.051l-.061-.067-2,.117v.328a1.291,1.291,0,0,1,.271.063.832.832,0,0,1,.222.1.583.583,0,0,1,.163.191.57.57,0,0,1,.065.276V-.421a.577.577,0,0,1-.052.267A.345.345,0,0,1-7.243,0a.684.684,0,0,1-.175.045c-.068.009-.137.017-.208.022V.4h2.574V.069a1.157,1.157,0,0,1-.2-.045,1.221,1.221,0,0,1-.179-.072" transform="translate(13.891 10.585)"/>
</svg>
