<svg xmlns="http://www.w3.org/2000/svg" width="104.375" height="78.24" viewBox="0 0 104.375 78.24">
  <g id="Group_1818" data-name="Group 1818" transform="translate(-744.434 -811.219)">
    <path id="Path_504" data-name="Path 504" d="M186.38,248.567c.069-5.214-.563-17.726,14.506-18.067h7.342c12.154.563,11.905,9.8,11.905,9.8v6.99" transform="translate(578.343 608.71)" fill="none" stroke="#00aec2" stroke-miterlimit="10" stroke-width="4"/>
    <path id="Pfad_357" d="M257.954,179.1a6.862,6.862,0,0,1,5.288,2.59,6.379,6.379,0,0,1,1.367,4.064,6.962,6.962,0,0,1-1.475,4.208,6.662,6.662,0,1,1-5.18-10.863Z" transform="translate(523.479 640.635)" fill="none" stroke="#00aec2" stroke-width="4"/>
    <path id="Path_487" data-name="Path 487" d="M264.454,203.079s-2.794,5.034-6.877,5.034c-3.94-.05-6.877-5.034-6.877-5.034s5.194-4.179,6.841-4.179S264.454,203.079,264.454,203.079Z" transform="translate(524.078 626.761)" fill="#fff" stroke="#00adc2" stroke-miterlimit="10" stroke-width="2"/>
    <g id="Group_1995" data-name="Group 1995" transform="translate(745.532 834.874)">
      <path id="Path_490" data-name="Path 490" d="M93.52.121,38.653,13.331,0,22.638l1.439,5.9L94.959,6.02C99.491,4.689,97.764-.886,93.52.121Z" transform="translate(6.419 10.818) rotate(13)" fill="#00adc2"/>
      <circle id="Ellipse_88" data-name="Ellipse 88" cx="6.403" cy="6.403" r="6.403" transform="matrix(0.281, -0.96, 0.96, 0.281, 84.905, 24.409)" fill="#fff" stroke="#00adc2" stroke-miterlimit="10" stroke-width="4"/>
      <path id="Path_491" data-name="Path 491" d="M47.911,16.775,76.327,9.689l-1.655-6.51c-10-7.086-21.725-.647-29.567,3.129L9.136,20.588,4.1,14.941,0,16.2l1.655,6.906,1.331,6.007Z" transform="translate(8.332 0) rotate(13)" fill="#fff" stroke="#00adc2" stroke-miterlimit="10" stroke-width="4"/>
    </g>
    <path id="Path_502" data-name="Path 502" d="M4.388,0A4.215,4.215,0,0,1,8.675,4.285a4.464,4.464,0,0,1-4.388,4.39A4.215,4.215,0,0,1,0,4.39,4.464,4.464,0,0,1,4.388,0Z" transform="matrix(0.281, -0.96, 0.96, 0.281, 775.861, 820.785)" fill="#fff" stroke="#00adc2" stroke-width="2"/>
  </g>
</svg>
