<svg xmlns="http://www.w3.org/2000/svg" width="58.292" height="58.085" viewBox="0 0 58.292 58.085">
  <defs>
    <style>
      .cls-1 {
        fill: none;
      }

      .cls-1, .cls-2 {
        stroke: #00a1b6;
        stroke-miterlimit: 10;
        stroke-width: 3px;
      }

      .cls-2 {
        fill: #fff;
      }
    </style>
  </defs>
  <g id="Group_3691" data-name="Group 3691" transform="translate(-137.223 -520.415)">
    <g id="operation_illu_lw07" transform="translate(2787.027 10.096)">
      <g id="Ebene_2" transform="translate(-2648.286 512.825)">
        <g id="Group_2008" data-name="Group 2008" transform="translate(0 0)">
          <path id="Pfad_520" class="cls-1" d="M337.7,332" transform="translate(-311.541 -324.384)"/>
          <path id="Pfad_521" class="cls-1" d="M381.809,374.3c0,3.483-7.909,3.433-7.909,0V342.8h7.909Z" transform="translate(-326.534 -322.81)"/>
          <path id="Pfad_522" class="cls-1" d="M381.709,327.7c.017,0,0-18.891,0-18.891s-12.417,7.071-5.255,14.157l-2.84,4.9" transform="translate(-326.442 -308.738)"/>
          <path id="Path_551" data-name="Path 551" class="cls-1" d="M302.7,360.577h0l4.8-15.132,1.122-4.144,4.508.178,6.386-22.379c5.331,3.749,3.632,8.612,3.632,8.612L319.459,340.6l-1.64,5.8-5.331.7-5.917,20.68s-1.875,5.565-7.147,4.042a5.808,5.808,0,0,1-3.984-7.206A5.93,5.93,0,0,1,302.7,360.577Z" transform="translate(-295.214 -319.041)"/>
          <path id="Path_552" data-name="Path 552" class="cls-2" d="M330.5,361.031h0c-.442-1.655-5.814-19.278-5.814-19.278l-4.973-.576L313.15,319c-5.331,3.749-3.632,8.612-3.632,8.612l3.691,12.888,1.64,5.8,5.331.7,5.917,20.621s1.875,5.565,7.147,4.042a5.807,5.807,0,0,0,3.984-7.206C335.694,359.564,330.589,361.005,330.5,361.031Z" transform="translate(-300.905 -319)"/>
        </g>
      </g>
    </g>
  </g>
</svg>
