<svg xmlns="http://www.w3.org/2000/svg" width="60.08" height="60.201" viewBox="0 0 60.08 60.201">
  <defs>
    <style>
      .cls-1 {
        fill: #00aec2;
      }
    </style>
  </defs>
  <g id="Group_3692" data-name="Group 3692" transform="translate(-829 -515)">
    <g id="Group_3688" data-name="Group 3688" transform="translate(153 -120)">
      <g id="Group_3483" data-name="Group 3483" transform="translate(-164 -553)">
        <g id="Group_3482" data-name="Group 3482" transform="translate(840 1188)">
          <path id="Path_1235" data-name="Path 1235" class="cls-1" d="M36.545,60.08c-6.562,0-12.548-4.43-16.423-12.155a1.5,1.5,0,0,1,2.686-1.347c3.346,6.671,8.353,10.5,13.737,10.5,9.6,0,17.4-12.128,17.4-27.036S46.141,3,36.545,3c-8.861,0-16.469,10.73-17.321,24.427a1.5,1.5,0,1,1-3-.186C17.192,11.713,25.927,0,36.545,0,47.8,0,56.952,13.476,56.952,30.04S47.8,60.08,36.545,60.08Z" transform="translate(-6.476)"/>
          <path id="Path_1236" data-name="Path 1236" class="cls-1" d="M40.339,58.087c-3.8,0-7.381-2.309-10.094-6.5a1.5,1.5,0,0,1,2.522-1.632c2.139,3.308,4.829,5.129,7.571,5.129,6.335,0,11.688-9.662,11.688-21.1s-5.352-21.1-11.688-21.1c-5.755,0-10.846,8.083-11.591,18.4a1.5,1.5,0,0,1-3-.217c.872-12.08,7.144-21.19,14.588-21.19,8.238,0,14.692,10.587,14.692,24.1S48.577,58.087,40.339,58.087Z" transform="translate(-10.279 -3.946)"/>
          <path id="Path_1237" data-name="Path 1237" class="cls-1" d="M47.343,61.977a7.01,7.01,0,1,1,7.01-7.01A7.017,7.017,0,0,1,47.343,61.977Zm0-11.015a4.006,4.006,0,1,0,4.006,4.006A4.01,4.01,0,0,0,47.343,50.962Z" transform="translate(-16.101 -19.145)"/>
          <path id="Path_1238" data-name="Path 1238" class="cls-1" d="M16.6,63.44H1.5a1.5,1.5,0,1,1,0-3H16.6a2.779,2.779,0,1,0,0-5.557H1.5a1.5,1.5,0,0,1,0-3H16.6a5.783,5.783,0,1,1,0,11.565Z" transform="translate(0 -20.708)"/>
          <path id="Path_1239" data-name="Path 1239" class="cls-1" d="M38.583,78.192H1.5a1.5,1.5,0,0,1,0-3H38.583a1.5,1.5,0,0,1,0,3Z" transform="translate(0 -30.015)"/>
          <path id="Path_1240" data-name="Path 1240" class="cls-1" d="M58.046,3H49.491a1.5,1.5,0,0,1,0-3h8.555a1.5,1.5,0,0,1,0,3Z" transform="translate(-18.556)"/>
          <path id="Path_1241" data-name="Path 1241" class="cls-1" d="M59.651,60.08c-.83,0-9.608.448-9.608-.381s8.778-2.623,9.608-2.623c9.6,0,17.4-12.128,17.4-27.036S69.247,3,59.651,3a1.5,1.5,0,1,1,0-3C70.9,0,80.058,13.476,80.058,30.04S70.9,60.08,59.651,60.08Z" transform="translate(-19.977)"/>
        </g>
      </g>
    </g>
  </g>
</svg>
