<svg xmlns="http://www.w3.org/2000/svg" width="78.007" height="78" viewBox="0 0 78.007 78">
  <g id="Logo-1.3" transform="translate(-716.885 -530.58)">
    <rect id="Shape-3" width="78" height="78" transform="translate(716.891 530.58)" fill="none"/>
    <path id="_1.3" data-name=" 1.3" d="M724.7,579.048V559.336a.515.515,0,0,0-.5-.528h-1.879a1.813,1.813,0,0,0-.644.112l-4.592,1.62a.284.284,0,0,0-.2.308v2.716c0,.252.112.336.308.336a.82.82,0,0,0,.336-.056l3.3-1.12v16.324a.562.562,0,0,0,.56.56h2.744a.561.561,0,0,0,.568-.556Zm9.044,0v-3.164a.537.537,0,0,0-.543-.532H730.7a.538.538,0,0,0-.559.516v3.18a.562.562,0,0,0,.56.56h2.492A.562.562,0,0,0,733.747,579.048Zm17.719-5.264V573.2a4.747,4.747,0,0,0-2.408-4.256,4.414,4.414,0,0,0,2.408-4.144v-.448c0-4.228-3-5.768-7.028-5.768a21.8,21.8,0,0,0-5.376.7.6.6,0,0,0-.532.532v1.736a.484.484,0,0,0,.469.5.155.155,0,0,0,.031,0h.056a44.306,44.306,0,0,1,5.348-.392c2.576,0,3.136,1.26,3.136,2.688v.448c0,1.484-.448,2.744-2.576,2.744h-4.952a.515.515,0,0,0-.532.5.186.186,0,0,0,0,.034v1.764a.514.514,0,0,0,.5.532H745c2.128,0,2.576,1.344,2.576,2.828v.588c0,1.96-.868,2.968-3.136,2.968-1.344,0-3.136-.168-5.348-.392h-.056a.485.485,0,0,0-.5.47.154.154,0,0,0,0,.03v1.736a.6.6,0,0,0,.532.532,21.714,21.714,0,0,0,5.376.7C748.414,579.832,751.466,577.956,751.466,573.784Z" fill="#020000"/>
  </g>
</svg>
