<svg xmlns="http://www.w3.org/2000/svg" width="98.46" height="104.602" viewBox="0 0 98.46 104.602">
  <g id="_04_HumAI_black" data-name="04_HumAI_black" transform="translate(0.011 -0.017)">
    <path id="Path_281" data-name="Path 281" d="M35.249,202.547a1.988,1.988,0,1,0-1.287-2.511A1.985,1.985,0,0,0,35.249,202.547Z" transform="translate(-31.955 -166.816)" fill="#1d1d1b"/>
    <path id="Path_282" data-name="Path 282" d="M25.7,335.854a1.971,1.971,0,1,0-1.478-.345A1.981,1.981,0,0,0,25.7,335.854Z" transform="translate(-23.41 -275.605)" fill="#1d1d1b"/>
    <path id="Path_283" data-name="Path 283" d="M70.809,449.891a4.088,4.088,0,1,0-5.5,1.784,4.088,4.088,0,0,0,5.5-1.784Z" transform="translate(-55.806 -367.067)" fill="#1d1d1b"/>
    <path id="Path_284" data-name="Path 284" d="M179.988,545.164a1.986,1.986,0,1,0-2.669.872A1.986,1.986,0,0,0,179.988,545.164Z" transform="translate(-148.187 -447.349)" fill="#1d1d1b"/>
    <path id="Path_285" data-name="Path 285" d="M310.175,575.453a1.979,1.979,0,1,0-.58,1.4A1.983,1.983,0,0,0,310.175,575.453Z" transform="translate(-254.306 -472.816)" fill="#1d1d1b"/>
    <path id="Path_286" data-name="Path 286" d="M119.512,62.52l-.872.734,3.767,4.441a3.429,3.429,0,0,1,.793,3.767,4.8,4.8,0,0,1-1.285,1.771,3.579,3.579,0,0,1-5.182-.145l-4.057-4.758-.859.734-.367-.422,2.763-2.346.367.435-.874.734,3.741,4.406a2.748,2.748,0,0,0,4.1.516,2.846,2.846,0,0,0,.239-4.222l-3.737-4.389-.872.734-.367-.437,2.341-1.983Z" transform="translate(-95.298 -55.31)" fill="#1d1d1b"/>
    <path id="Path_287" data-name="Path 287" d="M183.311,60.479l-3.053,1.626-.264-.5,1.017-.551-2.1-3.943c-.384-.714-.978-.964-1.573-.661s-.78.754-1.243,2.722l1.861,3.5,1.019-.542.266.5-3.055,1.625-.277-.5,1.032-.551-2.57-4.865-1.177.62L173,58.616l1.665-1.56.251-.132.793,1.52c.4-1.718.78-2.386,1.639-2.842a1.731,1.731,0,0,1,2.511.833l2.168,4.084,1.017-.529Z" transform="translate(-145.549 -49.807)" fill="#1d1d1b"/>
    <path id="Path_288" data-name="Path 288" d="M221.285,25.29a.8.8,0,1,1,.516,1.52.778.778,0,0,1-1.011-.507.789.789,0,0,1,.488-1.017Zm5.1,9.344-3.277,1.123-.184-.529,1.111-.384-1.779-5.193-1.285.435-.132-.4,1.891-1.285.264-.079,2.115,6.146,1.1-.367Z" transform="translate(-184.527 -25.23)" fill="#1d1d1b"/>
    <path id="Path_289" data-name="Path 289" d="M228.768,6.484l-.635.132L227,13.53l-.3.066L222.78,7.714l-.633.119-.106-.556,2.895-.58.119.542L224,7.45l2.684,4.057.78-4.758-1,.213-.106-.556,2.3-.475Z" transform="translate(-181.289 -4.828)" fill="#1d1d1b"/>
    <path id="Path_290" data-name="Path 290" d="M295.819,34.43a3.16,3.16,0,0,1-1.85.78,2.181,2.181,0,0,1-.832-.132v.833a2.739,2.739,0,0,0,.463.013,4.587,4.587,0,0,0,2.537-.938l-.318-.551Zm-2.675-2.59,3.042-.132-.013-.409a2.65,2.65,0,0,0-2.895-2.671c-.04,0-.094.015-.132.015v.646a.773.773,0,0,1,.171-.013,1.492,1.492,0,0,1,1.586,1.507l.015.367-1.771.066Zm0,3.238a3.106,3.106,0,0,1-1.746-3v-.173l1.746-.066v-.62l-1.759.079a1.979,1.979,0,0,1,1.759-2.01v-.646a3.364,3.364,0,0,0-2.987,3.475v.292a.077.077,0,0,0,.013.051,3.343,3.343,0,0,0,2.974,3.451Z" transform="translate(-241.2 -27.988)" fill="#1d1d1b"/>
    <path id="Path_291" data-name="Path 291" d="M331.745,37.094,328,36.711l.051-.567,1.151.117.567-5.458-1.322-.145.04-.411,2.247-.367.277.039-.171,1.693c1.228-1.285,1.665-1.573,2.2-1.52a.551.551,0,0,1,.409.184l.437.45-.991.977c-.277-.316-.475-.475-.622-.5-.277-.028-.58.211-1.52,1.136l-.409,4.039,1.454.16Z" transform="translate(-272.096 -29.013)" fill="#1d1d1b"/>
    <path id="Path_292" data-name="Path 292" d="M359.155,42.2l-.595-.145.514-2.115.688.173-.106.4c-.145.633.551,1.4,1.469,1.625.821.2,1.535-.079,1.667-.674s-.184-1.017-1.6-2.008c-1.285-.9-1.665-1.573-1.426-2.5a2.084,2.084,0,0,1,2.763-1.388,2.365,2.365,0,0,1,1.454.885l.222-.516.635.16-.874,2.043-.646-.16a1.336,1.336,0,0,0,.211-.463c.145-.58-.409-1.215-1.217-1.413a1.151,1.151,0,0,0-1.533.734c-.16.628-.066.734,1.56,1.9,1.309.938,1.652,1.533,1.426,2.486a2.113,2.113,0,0,1-2.735,1.48,2.77,2.77,0,0,1-1.744-1.057Z" transform="translate(-297.046 -33.581)" fill="#1d1d1b"/>
    <path id="Path_293" data-name="Path 293" d="M395.265,28.328a.8.8,0,1,1-.551,1.494.787.787,0,0,1-.463-1.032.778.778,0,0,1,1.019-.463Zm-2.01,10.463L390,37.555l.2-.52,1.083.409,1.944-5.14-1.243-.475.145-.384,2.274.215.25.092-2.3,6.093,1.083.409Z" transform="translate(-322.714 -27.701)" fill="#1d1d1b"/>
    <path id="Path_294" data-name="Path 294" d="M420.788,54.708a2.427,2.427,0,0,1-1.863-.066,1.331,1.331,0,0,1-.595-1.957l2.1-4.222-1.19-.595.184-.367,1.335.29.951-1.891.978.507-.962,1.916,1.7.846-.3.633-1.693-.844-2.054,4.1c-.264.514-.184.793.264,1.017a1.829,1.829,0,0,0,1.1.145Z" transform="translate(-345.675 -42.092)" fill="#1d1d1b"/>
    <path id="Path_295" data-name="Path 295" d="M440.476,66.51a6.3,6.3,0,0,1-.661.053v.529a3.3,3.3,0,0,0,.343-.079.669.669,0,0,0-.092.119c-.318.463-.292.9.1,1.175a2.754,2.754,0,0,0,.507.213l1.032.316.237-.356-.978-.674,2.671-3.873c.567-.832.224-1.876-.887-2.643-1.149-.793-2.364-.832-2.867-.092a.568.568,0,0,1-.066.092v.365l1.268.409.424-.608a1.909,1.909,0,0,1,.918.33,1.028,1.028,0,0,1,.29,1.469l-.978,1.426-1.926-.775v.661l1.573.608-.918,1.335Zm2.842-7.11a.763.763,0,0,0-1.256-.866.761.761,0,1,0,1.256.859Zm2.234,1.533a.769.769,0,1,1-.185-1.07A.778.778,0,0,1,445.552,60.933Zm-5.737,5.63a1.7,1.7,0,0,1-1.083-.264.983.983,0,0,1-.264-1.469l.422-.635.918.367V63.9l-.562-.228a1.6,1.6,0,0,0-1.916.609,1.733,1.733,0,0,0,.516,2.484,2.258,2.258,0,0,0,1.97.318v-.529Zm0-5.274v.365l-.066-.028a.735.735,0,0,1,.066-.34Z" transform="translate(-361.093 -52.137)" fill="#1d1d1b"/>
    <path id="Path_296" data-name="Path 296" d="M471.984,94.835c-1.032-.066-1.347-.158-1.771-.551a1.331,1.331,0,0,1-.079-2.049l3.146-3.506-.991-.887.277-.318,1.221.648,1.4-1.573.821.734-1.441,1.6,1.414,1.268-.463.529L474.1,89.464l-3.058,3.414c-.384.424-.384.734,0,1.057a1.778,1.778,0,0,0,1.017.424Z" transform="translate(-387.777 -75.321)" fill="#1d1d1b"/>
    <path id="Path_297" data-name="Path 297" d="M87.664,318.685l-.734-3.7.551-.107L87.692,316l8.8-1.731-.226-1.123.551-.106.846,4.283a2.81,2.81,0,0,1-2.274,3.488,3.142,3.142,0,0,1-3.622-2.684,3.273,3.273,0,0,1-.079-.859l.529-.1a1.246,1.246,0,0,0,.028.409,2.429,2.429,0,0,0,2.891,1.885,2.035,2.035,0,0,0,1.812-2.2l-.33-1.626-8.644,1.705.259,1.257Z" transform="translate(-75.279 -260.193)" fill="#1d1d1b"/>
    <path id="Path_298" data-name="Path 298" d="M107.4,372.276a4,4,0,0,0,1.362-.343,3.506,3.506,0,0,0,1.97-4.534,3.341,3.341,0,0,0-3.332-1.9v1.256a2.291,2.291,0,0,1,2.754.918c.463,1.045-.367,2.386-1.916,3.093a5.044,5.044,0,0,1-.833.277Zm-3.33-1.9a3.359,3.359,0,0,0,3.33,1.9v-1.243a2.324,2.324,0,0,1-2.754-.918c-.463-1.045.384-2.386,1.916-3.08a5.267,5.267,0,0,1,.832-.277V365.5a3.975,3.975,0,0,0-1.36.33A3.508,3.508,0,0,0,104.068,370.372Z" transform="translate(-89.052 -303.012)" fill="#1d1d1b"/>
    <path id="Path_299" data-name="Path 299" d="M128.52,404.6c-.991-.3-1.285-.475-1.6-.938a1.33,1.33,0,0,1,.409-2.008l3.886-2.684-.754-1.083.345-.239,1.03.9,1.731-1.19.622.9-1.771,1.23,1.07,1.559-.567.4-1.087-1.559-3.767,2.6c-.475.33-.551.608-.251,1.032a1.8,1.8,0,0,0,.887.633Z" transform="translate(-107.688 -329.034)" fill="#1d1d1b"/>
    <path id="Path_300" data-name="Path 300" d="M141.972,430.933l-.422-.435,1.559-1.507.49.5-.3.277c-.475.463-.29,1.48.367,2.153.582.609,1.335.754,1.771.33s.382-.964-.279-2.55c-.62-1.454-.567-2.221.119-2.882a2.108,2.108,0,0,1,3.093.3,2.421,2.421,0,0,1,.734,1.52l.463-.318.463.475-1.836,1.268-.463-.475a1.567,1.567,0,0,0,.437-.277,1.388,1.388,0,0,0-.277-1.85,1.117,1.117,0,0,0-1.693-.184c-.475.464-.45.582.292,2.432.62,1.494.58,2.181-.119,2.867a2.093,2.093,0,0,1-3.093-.224,2.744,2.744,0,0,1-.918-1.81Z" transform="translate(-119.872 -352.643)" fill="#1d1d1b"/>
    <path id="Path_301" data-name="Path 301" d="M183.535,451.45l-1.111-.749,5.841-8.6-.237-.173-2.155-.734-.237.332,1.1.734-1.983,2.937a2.482,2.482,0,0,0-.918-1.1,3.525,3.525,0,0,0-2.087-.595v.874a2.26,2.26,0,0,1,1.876.356c.734.5.819.938.29,1.718l-2,2.937c-.053,0-.119.015-.171.015v1.854l1.546.542Zm-1.8-7.945a3.82,3.82,0,0,0-3.027,1.718,4.024,4.024,0,0,0-.71,1.97v.529a2.6,2.6,0,0,0,1.1,2,2.817,2.817,0,0,0,2.4.279l-.6.888.239.158.595.213V449.4c-.173.013-.3.026-.384.026a1.615,1.615,0,0,1-1.309-.277c-1.045-.7-1.083-1.97-.119-3.383a3.234,3.234,0,0,1,1.812-1.388Z" transform="translate(-149.631 -364.819)" fill="#1d1d1b"/>
    <path id="Path_302" data-name="Path 302" d="M224.465,481.74l-1.1-.435,1.746-4.362a1.234,1.234,0,0,0,.1-.463v-.226a2.191,2.191,0,0,0-1.546-1.705,3.137,3.137,0,0,0-1.983-.184v1.256l.529.039.277-.674a1.854,1.854,0,0,1,.966.106,1.034,1.034,0,0,1,.606,1.373l-.63,1.615-1.744-.277v.608l1.52.224-.615,1.505a5.418,5.418,0,0,1-.918.264v.613a4.117,4.117,0,0,0,.714-.33.965.965,0,0,1-.066.147c-.2.529-.081.938.367,1.123a2.312,2.312,0,0,0,.529.092l1.07.079Zm-2.776-7.374a1.248,1.248,0,0,0-.833.734.672.672,0,0,0-.053.435l.887.094v-1.256Zm0,3.436-.918-.147a1.586,1.586,0,0,0-1.731,1.019,1.746,1.746,0,0,0,1.045,2.313,2.159,2.159,0,0,0,1.6.039v-.62a1.573,1.573,0,0,1-.833-.092.988.988,0,0,1-.595-1.362l.292-.714,1.136.173Z" transform="translate(-183.028 -391.832)" fill="#1d1d1b"/>
    <path id="Path_303" data-name="Path 303" d="M273.066,494.839l-3.429-.325.066-.567,1.149.1.437-4.441c.079-.833-.292-1.335-.953-1.4-.5-.053-.918.132-1.639.766l-.9.793-.384,3.952,1.136.119-.053.551-3.422-.33.051-.567,1.138.119.448-4.455c.081-.806-.29-1.347-.964-1.414s-1.057.184-2.524,1.573l-.384,3.95,1.149.119-.053.551-3.449-.33.053-.569,1.149.119.551-5.472-1.322-.132.039-.409,2.247-.384.264.026-.158,1.705c1.268-1.215,1.97-1.559,2.937-1.469,1.085.106,1.6.734,1.639,1.917,1.268-1.215,1.97-1.56,2.921-1.469a1.738,1.738,0,0,1,1.639,2.061l-.45,4.626,1.136.106Z" transform="translate(-216.979 -402.023)" fill="#1d1d1b"/>
    <path id="Path_304" data-name="Path 304" d="M365.967,212.951v-9.516h1.006v-12.5h-1.006v-2.882h3.106v24.9Zm0-26.067v-1.639h2.57a2.642,2.642,0,0,1-.132-.872c0-.648.184-1.19.411-1.19s.4.542.4,1.19a2.62,2.62,0,0,1-.147.872v1.639Zm0-1.639v1.639h-4.1v-1.639H364.9a2.642,2.642,0,0,1-.132-.872c0-.648.184-1.19.4-1.19s.409.542.409,1.19a2.592,2.592,0,0,1-.132.872Zm0,2.8v2.882h-.991v12.5h.991v9.516h-.991a5.841,5.841,0,0,1-3.106,2.684V211.55c1.812-.833,3.027-1.876,3.04-3.093.015-1.149-1.123-2.234-3.04-3.121v-1.9h1.006v-12.5h-1.006v-2.882Zm-4.1-2.987a3.435,3.435,0,0,0,.081-.687,3.179,3.179,0,0,0-.081-.674Zm0-1.36v1.36c-.013.066-.039.132-.051.184h.051v1.639h-4.255v-1.639h.04a1.463,1.463,0,0,1-.04-.145v-1.439c.066-.277.184-.463.3-.463.224,0,.409.542.409,1.19a2.642,2.642,0,0,1-.132.872h3.078a2.639,2.639,0,0,1-.132-.872c0-.648.173-1.19.4-1.19.132,0,.251.211.33.516Zm0,4.347v2.882h-1v12.5h1v1.907a22.054,22.054,0,0,0-4.255-1.388v-.516h1.164v-12.5h-1.164v-2.882Zm0,23.5v4.084a21.056,21.056,0,0,1-4.255,1.441v-4.156a21.865,21.865,0,0,0,4.255-1.362Zm-4.255-.551v-5.033c1.693.648,2.882,1.494,2.882,2.511,0,.966-1.085,1.838-2.882,2.526Zm-13.257-7.561v-12.5h-2.008v12.5Zm13.257-19.772v1.454a2.853,2.853,0,0,1-.092-.734,2.94,2.94,0,0,1,.092-.734Zm0,1.6h-2.882v-4.406h-.991a3.671,3.671,0,0,1-.277-1.469c.094-3.172-1.612-5.8-5.379-5.935a2.82,2.82,0,0,0,.119-.819c0-.648-.184-1.19-.411-1.19s-.409.551-.409,1.19a2.861,2.861,0,0,0,.106.819c-3.754.132-5.472,2.754-5.366,5.935a3.876,3.876,0,0,1-.279,1.469h-.991v4.406h-2.88V186.9h2.88l6.939-3.714,6.926,3.714H340.854v1.136h13.878V186.9h2.882v-1.639Zm0,2.8v2.882h-.841v12.5h.833v.516c-.918-.2-1.863-.367-2.882-.516V188.049Zm0,17.909V211a19.071,19.071,0,0,1-2.895.806v-6.658a18.287,18.287,0,0,1,2.895.806Zm0,6.954v4.147c-.918.211-1.876.4-2.895.542v-4.169c.978-.132,1.944-.3,2.895-.529Zm-19.64,4.147v-4.156c.951.224,1.916.4,2.88.529v4.178c-1.017-.145-1.983-.33-2.88-.542Zm0-6.08v-5.03a18.541,18.541,0,0,1,2.88-.806V211.8a18.854,18.854,0,0,1-2.88-.806Zm0-7.045v-.516h.832v-12.5h-.832v-2.882h2.88v15.385c-1.017.145-1.983.318-2.88.516Zm0-18.847v-1.437a2.873,2.873,0,0,1,0,1.441Zm11.736,18.331v-12.5h-3.833v12.5Zm-7.638,8.367h11.446v-6.68H342.071V211.8Zm11.168-8.367v-12.5h-2.01v12.5Zm-15.266-19.769V185.1c-.013.053-.028.092-.04.145h.04v1.639h-4.257v-1.639h.053a.878.878,0,0,1-.053-.184V183.7c.066-.3.184-.516.33-.516.213,0,.4.542.4,1.19a2.6,2.6,0,0,1-.132.872h3.08a2.642,2.642,0,0,1-.132-.872c0-.648.184-1.19.4-1.19.132,0,.251.184.318.475Zm0,4.387v2.882H336.8v12.5h1.177v.516a21.823,21.823,0,0,0-4.257,1.388v-1.9h.991v-12.5h-.991v-2.882Zm0,17.909v5.037c-1.8-.688-2.882-1.56-2.882-2.526C335.092,207.449,336.282,206.6,337.974,205.955Zm0,6.954v4.16a21.109,21.109,0,0,1-4.257-1.441V211.55a21.923,21.923,0,0,0,4.257,1.362ZM333.717,183.7v1.36a2.793,2.793,0,0,1-.079-.687A2.681,2.681,0,0,1,333.717,183.7Zm0,1.546h-3.025a2.642,2.642,0,0,0,.132-.872c0-.648-.184-1.19-.411-1.19s-.4.542-.4,1.19a2.643,2.643,0,0,0,.132.872h-.543v1.639h4.112Zm0,2.8v2.882h-1v12.5h1v1.9c-1.929.885-3.053,1.97-3.04,3.121.015,1.217,1.23,2.26,3.04,3.093v4.084a5.848,5.848,0,0,1-3.106-2.684h-1.006v-9.518h1v-12.5h-1v-2.882Zm-4.112-2.8v1.639h-3.1v-1.639a2.7,2.7,0,0,1-.132-.872c0-.648.184-1.19.4-1.19s.409.542.409,1.19a2.6,2.6,0,0,1-.132.872Zm0,2.8v2.882h-.991v12.5h.991v9.516h-3.1v-24.9Z" transform="translate(-270.764 -144.586)" fill="#1d1d1b"/>
  </g>
</svg>
