<?xml version="1.0" standalone="no"?>
<!DOCTYPE svg PUBLIC "-//W3C//DTD SVG 20010904//EN"
 "http://www.w3.org/TR/2001/REC-SVG-20010904/DTD/svg10.dtd">
<svg version="1.0" xmlns="http://www.w3.org/2000/svg"
 width="500.000000pt" height="300.000000pt" viewBox="0 0 500.000000 300.000000"
 preserveAspectRatio="xMidYMid meet">
<metadata>
Created by potrace 1.16, written by Peter Selinger 2001-2019
</metadata>
<g transform="translate(0.000000,300.000000) scale(0.100000,-0.100000)"
fill="#000000" stroke="none">
<path d="M4470 2077 c-62 -32 -93 -92 -88 -168 5 -71 33 -112 93 -134 120 -46
244 41 245 171 0 125 -131 194 -250 131z m144 -78 c36 -28 37 -89 1 -124 -32
-33 -105 -35 -135 -5 -23 23 -27 85 -7 111 33 42 99 51 141 18z"/>
<path d="M2317 2023 c-2 -5 0 -68 5 -141 5 -74 8 -135 6 -137 -2 -2 -28 3 -58
11 -70 19 -146 11 -209 -21 -147 -74 -210 -306 -130 -472 62 -127 215 -180
347 -118 63 29 62 29 62 10 0 -12 15 -15 79 -15 55 0 80 4 82 13 2 6 3 207 1
445 l-2 432 -90 0 c-49 0 -91 -3 -93 -7z m-28 -394 c19 -7 33 -19 36 -32 8
-40 12 -284 4 -304 -15 -41 -127 -57 -179 -26 -50 29 -75 88 -75 173 0 62 4
83 25 119 40 71 111 97 189 70z"/>
<path d="M3643 1979 c-132 -18 -242 -78 -306 -169 -96 -138 -122 -411 -52
-550 85 -168 314 -200 451 -63 57 57 79 114 79 209 0 72 -3 86 -30 130 -17 27
-51 62 -75 79 -42 28 -51 30 -135 30 -75 0 -96 -4 -127 -22 l-38 -22 0 23 c0
12 14 50 31 84 45 90 112 138 230 163 l51 11 -6 46 c-3 25 -10 49 -14 52 -4 4
-30 3 -59 -1z m-33 -477 c112 -112 10 -324 -125 -259 -44 21 -75 90 -82 182
-5 69 -5 72 22 93 21 17 41 22 88 22 55 0 62 -2 97 -38z"/>
<path d="M352 1953 c-5 -10 -12 -58 -15 -108 -4 -49 -18 -184 -32 -300 -40
-329 -45 -369 -45 -387 0 -16 11 -18 88 -18 l88 0 13 263 c6 144 15 285 18
312 l6 50 9 -35 c16 -61 57 -190 113 -350 30 -85 59 -174 65 -197 l11 -43 74
0 74 0 11 43 c6 23 42 130 80 237 38 107 77 224 87 260 l18 65 6 -60 c4 -33
10 -169 14 -302 l8 -243 98 0 99 0 0 41 c0 22 -9 143 -20 267 -12 125 -24 292
-28 372 l-7 145 -124 0 -124 0 -13 -60 c-7 -33 -27 -100 -44 -150 -18 -49 -51
-147 -74 -217 -23 -70 -45 -130 -48 -133 -3 -4 -11 15 -16 42 -6 26 -31 112
-55 189 -25 78 -53 175 -62 215 -29 128 -17 119 -149 119 -100 0 -117 -2 -124
-17z"/>
<path d="M4057 1804 c-122 -38 -197 -179 -197 -367 0 -151 45 -248 134 -292
144 -70 321 -31 390 87 84 144 67 404 -33 511 -62 68 -191 95 -294 61z m153
-142 c39 -40 60 -118 60 -226 0 -140 -36 -196 -126 -196 -45 0 -97 49 -113
105 -14 50 -14 208 -1 257 24 84 123 117 180 60z"/>
<path d="M2745 1790 c-4 -6 -9 -35 -12 -65 l-6 -55 70 6 c139 13 213 -18 213
-89 0 -67 -61 -107 -186 -123 l-52 -6 -6 -45 c-3 -25 -3 -49 0 -54 3 -5 29 -9
58 -9 72 0 149 -26 183 -62 24 -25 28 -38 28 -83 0 -39 -6 -61 -21 -82 -43
-58 -140 -104 -261 -123 -37 -6 -69 -12 -70 -14 -2 -1 0 -24 3 -49 l7 -47 58
0 c173 0 368 101 430 221 63 125 16 266 -108 321 l-44 19 48 32 c124 83 118
239 -12 298 -32 15 -66 19 -177 19 -83 0 -139 -4 -143 -10z"/>
<path d="M1479 1755 c-66 -21 -132 -84 -171 -163 -30 -60 -33 -75 -33 -152 0
-71 5 -95 27 -142 57 -122 158 -178 322 -178 91 0 194 21 207 41 5 8 9 38 9
67 l0 54 -52 -9 c-29 -4 -92 -8 -140 -8 -81 0 -88 2 -125 31 -36 29 -83 98
-73 107 3 3 95 9 205 14 l200 8 3 58 c6 114 -45 214 -131 259 -54 28 -181 34
-248 13z m168 -127 c21 -10 39 -43 45 -82 2 -14 -5 -22 -22 -27 -36 -10 -220
-11 -220 0 0 19 30 78 48 94 38 35 96 41 149 15z"/>
</g>
</svg>
