<svg xmlns="http://www.w3.org/2000/svg" xmlns:xlink="http://www.w3.org/1999/xlink" width="205.135" height="34.713" viewBox="0 0 205.135 34.713">
  <defs>
    <clipPath id="clip-path">
      <path id="Path_306" data-name="Path 306" fill="none" d="M0-61.215H205.135V-95.928H0Z" transform="translate(0 95.928)"/>
    </clipPath>
  </defs>
  <g id="Group_278" data-name="Group 278" transform="translate(0 95.928)">
    <g id="Group_262" data-name="Group 262" clip-path="url(#clip-path)" transform="translate(0 -95.928)">
      <g id="Group_261" data-name="Group 261" transform="translate(170.455 0)">
        <path id="Path_305" data-name="Path 305" fill="#00142c" d="M-30.578-44.968a8.16,8.16,0,0,1-8.16-8.16,8.16,8.16,0,0,1,8.16-8.16,8.16,8.16,0,0,1,8.16,8.16h9.18a17.34,17.34,0,0,0-17.34-17.34,17.34,17.34,0,0,0-17.34,17.34,17.34,17.34,0,0,0,17.34,17.34h0v-9.18Z" transform="translate(47.918 70.468)"/>
      </g>
    </g>
    <g id="Group_263" data-name="Group 263" transform="translate(187.795 -78.588)">
      <path id="Path_307" data-name="Path 307" fill="#00aec2" d="M0,0V17.34L17.34,0Z"/>
    </g>
    <g id="Group_277" data-name="Group 277" clip-path="url(#clip-path)" transform="translate(0 -95.928)">
      <g id="Group_264" data-name="Group 264" transform="translate(0 8.422)">
        <path id="Path_308" data-name="Path 308" fill="#00142c" d="M-17.871-22.738a6.048,6.048,0,0,0,4.685-6.2c0-4.19-2.845-6.691-7.611-6.691h-6.671a.508.508,0,0,0-.538.567V-15.37a.508.508,0,0,0,.538.567h2.645a.508.508,0,0,0,.538-.567v-6.937h2.353l4.985,7.148a.667.667,0,0,0,.606.356h3.249a.473.473,0,0,0,.444-.212.493.493,0,0,0-.075-.52Zm.878-6.174c0,2.2-1.209,3.228-3.8,3.228h-3.487v-6.485H-20.8c2.63,0,3.8,1,3.8,3.257" transform="translate(28.005 35.632)"/>
      </g>
      <g id="Group_265" data-name="Group 265" transform="translate(17.193 13.741)">
        <path id="Path_309" data-name="Path 309" fill="#00142c" d="M-11.749,0a10.041,10.041,0,0,0-5.72,1.554.476.476,0,0,0-.029.669l1.149,1.751A.537.537,0,0,0-16,4.232a.526.526,0,0,0,.411-.1,7.272,7.272,0,0,1,3.611-.9c2,0,2.74.75,2.74,2.768v.392a21.686,21.686,0,0,0-2.74-.211c-4.088,0-6.432,1.726-6.432,4.736,0,3.138,2.387,4.937,6.547,4.937a20.925,20.925,0,0,0,5.833-.873.64.64,0,0,0,.4-.614v-8.4C-5.633,2.121-7.8,0-11.749,0m-.115,12.68c-1.087,0-2.912-.233-2.912-1.791,0-1.186.943-1.762,2.883-1.762a20.728,20.728,0,0,1,2.654.212v3.024a12.693,12.693,0,0,1-2.625.317" transform="translate(18.411)"/>
      </g>
      <g id="Group_266" data-name="Group 266" transform="translate(33.063 8.422)">
        <path id="Path_310" data-name="Path 310" fill="#00142c" d="M-21.889,0h-2.473a.516.516,0,0,0-.567.567V5.884A8.167,8.167,0,0,0-27.9,5.319c-3.83,0-6.4,2.5-6.4,6.231v3.162c0,4.106,2.449,6.461,6.72,6.461a18.228,18.228,0,0,0,5.855-1.044.579.579,0,0,0,.4-.616V.567A.516.516,0,0,0-21.889,0M-27.5,17.97c-2.193,0-3.171-1-3.171-3.228V11.55c0-2.018,1.019-3,3.114-3a4.862,4.862,0,0,1,2.624.685v8.37a8.5,8.5,0,0,1-2.567.362" transform="translate(34.302 0)"/>
      </g>
      <g id="Group_267" data-name="Group 267" transform="translate(49.594 8.307)">
        <path id="Path_311" data-name="Path 311" fill="#00142c" d="M-3.586,0A1.975,1.975,0,0,0-5.619,2,2.012,2.012,0,0,0-3.586,4.038,1.974,1.974,0,0,0-1.581,2a1.939,1.939,0,0,0-2-2" transform="translate(5.619)"/>
      </g>
      <g id="Group_268" data-name="Group 268" transform="translate(49.795 14.086)">
        <path id="Path_312" data-name="Path 312" fill="#00142c" d="M-5.411,0h-2.5a.519.519,0,0,0-.567.538V14.6a.526.526,0,0,0,.567.567h2.5a.508.508,0,0,0,.538-.567V.538A.5.5,0,0,0-5.411,0" transform="translate(8.479)"/>
      </g>
      <g id="Group_269" data-name="Group 269" transform="translate(56.696 13.741)">
        <path id="Path_313" data-name="Path 313" fill="#00142c" d="M-11.8,0c-4.064,0-6.691,2.378-6.691,6.059V9.912c0,3.61,2.626,5.943,6.691,5.943s6.691-2.333,6.691-5.943V6.059C-5.107,2.378-7.734,0-11.8,0m-3.055,6.059c0-1.83,1.057-2.8,3.055-2.8,1.97,0,3.056.993,3.056,2.8V9.912c0,1.754-1.057,2.682-3.056,2.682s-3.055-.927-3.055-2.682Z" transform="translate(18.489)"/>
      </g>
      <g id="Group_270" data-name="Group 270" transform="translate(73.916 8.422)">
        <path id="Path_314" data-name="Path 314" fill="#00142c" d="M-17.872-22.738a6.048,6.048,0,0,0,4.685-6.2c0-4.19-2.845-6.691-7.611-6.691h-6.67a.509.509,0,0,0-.538.567V-15.37a.509.509,0,0,0,.538.567h2.645a.508.508,0,0,0,.538-.567v-6.937h2.353l4.984,7.148a.667.667,0,0,0,.606.356h3.249a.473.473,0,0,0,.444-.212.493.493,0,0,0-.075-.52Zm.878-6.174c0,2.2-1.209,3.228-3.8,3.228h-3.487v-6.485H-20.8c2.63,0,3.8,1,3.8,3.257" transform="translate(28.006 35.632)"/>
      </g>
      <g id="Group_271" data-name="Group 271" transform="translate(91.656 13.741)">
        <path id="Path_315" data-name="Path 315" fill="#00142c" d="M-11.393,0c-2.98,0-6.461,1.579-6.461,6.03v4.083c0,3.967,3.23,5.742,6.432,5.742A9.172,9.172,0,0,0-5.5,13.844a.579.579,0,0,0,.249-.395.525.525,0,0,0-.135-.4l-1.178-1.579a.528.528,0,0,0-.357-.228.557.557,0,0,0-.4.108,6.65,6.65,0,0,1-3.978,1.3c-1.851,0-2.912-.914-2.912-2.51V9.472h8.6a.508.508,0,0,0,.567-.538V6.03C-5.047,3.115-6.714,0-11.393,0m-2.826,6a2.522,2.522,0,0,1,2.826-2.8A2.582,2.582,0,0,1-8.567,6v.612h-5.652Z" transform="translate(17.854)"/>
      </g>
      <g id="Group_272" data-name="Group 272" transform="translate(107.583 13.741)">
        <path id="Path_316" data-name="Path 316" fill="#00142c" d="M-11.039,0a17.26,17.26,0,0,0-5.856,1.044.566.566,0,0,0-.4.587V20.406a.516.516,0,0,0,.567.567h2.473a.516.516,0,0,0,.567-.567V15.29a7.75,7.75,0,0,0,2.912.564c3.881,0,6.489-2.515,6.489-6.259V6.432C-4.291,2.345-6.75,0-11.039,0m-2.653,3.563A7.768,7.768,0,0,1-11.125,3.2c2.193,0,3.17.987,3.17,3.2v3.22c0,2.009-1.047,3.027-3.113,3.027a4.76,4.76,0,0,1-2.624-.742Z" transform="translate(17.299)"/>
      </g>
      <g id="Group_273" data-name="Group 273" transform="translate(123.367 13.741)">
        <path id="Path_317" data-name="Path 317" fill="#00142c" d="M-11.8,0c-4.064,0-6.691,2.378-6.691,6.059V9.912c0,3.61,2.626,5.943,6.691,5.943s6.691-2.333,6.691-5.943V6.059C-5.107,2.378-7.734,0-11.8,0m-3.055,6.059c0-1.83,1.057-2.8,3.055-2.8,1.97,0,3.056.993,3.056,2.8V9.912c0,1.754-1.057,2.682-3.056,2.682s-3.055-.927-3.055-2.682Z" transform="translate(18.489)"/>
      </g>
      <g id="Group_274" data-name="Group 274" transform="translate(140.013 13.741)">
        <path id="Path_318" data-name="Path 318" fill="#00142c" d="M-14.879-.409a18.483,18.483,0,0,0-2.954-.232A11.775,11.775,0,0,0-22.912.46a.6.6,0,0,0-.4.616V14.3a.516.516,0,0,0,.567.567h2.473a.516.516,0,0,0,.567-.567V2.951a7.269,7.269,0,0,1,2.395-.359,15.217,15.217,0,0,1,2.3.113.526.526,0,0,0,.457-.087.485.485,0,0,0,.165-.391V.156a.525.525,0,0,0-.488-.565" transform="translate(23.316 0.641)"/>
      </g>
      <g id="Group_275" data-name="Group 275" transform="translate(151.283 10.463)">
        <path id="Path_319" data-name="Path 319" fill="#00142c" d="M-12.191-27.786h0c-.45.028-.915.057-1.17.057-1.378,0-2.136-.84-2.136-2.366v-6.449h2.912a.518.518,0,0,0,.567-.538v-2.1a.518.518,0,0,0-.567-.538h-2.95l-.25-3.331a.548.548,0,0,0-.566-.493h-2.185A.508.508,0,0,0-19.1-43v13.14c0,3.466,1.988,5.454,5.455,5.454.455,0,1.084-.031,1.537-.058a.557.557,0,0,0,.525-.6v-2.185a.53.53,0,0,0-.6-.538" transform="translate(19.104 43.542)"/>
      </g>
      <g id="Group_276" data-name="Group 276" transform="translate(158.937 7.287)">
        <path id="Path_320" data-name="Path 320" fill="#00142c" d="M-5.046-10.094a2.729,2.729,0,0,1-2.862-2.862,2.736,2.736,0,0,1,2.862-2.862,2.736,2.736,0,0,1,2.862,2.862,2.729,2.729,0,0,1-2.862,2.862m.014-.564a2.165,2.165,0,0,0,2.27-2.3,2.151,2.151,0,0,0-2.27-2.3,2.158,2.158,0,0,0-2.3,2.3,2.172,2.172,0,0,0,2.3,2.3m-.77-.936a.182.182,0,0,1-.206-.206v-2.367a.188.188,0,0,1,.206-.206h.908c.578,0,1.018.275,1.018.88a.78.78,0,0,1-.647.853l.592.8c.1.151.041.248-.11.248h-.193a.278.278,0,0,1-.248-.124L-5.1-12.6h-.372v.8a.188.188,0,0,1-.206.206Zm.33-1.486h.564c.317,0,.5-.124.5-.413s-.206-.385-.5-.385h-.564Z" transform="translate(7.908 15.818)"/>
      </g>
    </g>
  </g>
</svg>
