<?xml version="1.0" encoding="utf-8"?>
<!-- Generator: Adobe Illustrator 24.3.0, SVG Export Plug-In . SVG Version: 6.00 Build 0)  -->
<svg version="1.1" id="Ebene_1" xmlns="http://www.w3.org/2000/svg" xmlns:xlink="http://www.w3.org/1999/xlink" x="0px" y="0px"
	 viewBox="0 0 1082.11 184.78" style="enable-background:new 0 0 1082.11 184.78;" xml:space="preserve">
<style type="text/css">
	.st0{fill:#FFFFFF;}
	.st1{clip-path:url(#SVGID_2_);}
</style>
<polygon class="st0" points="989.81,92.3 989.81,183.6 1081.11,92.3 "/>
<g>
	<defs>
		<rect id="SVGID_1_" x="1" y="1" width="1080.11" height="182.78"/>
	</defs>
	<clipPath id="SVGID_2_">
		<use xlink:href="#SVGID_1_"  style="overflow:visible;"/>
	</clipPath>
	<path class="st1" d="M989.81,135.27c-23.73,0-42.97-19.24-42.97-42.97c0-23.73,19.24-42.96,42.97-42.96
		c23.73,0,42.97,19.24,42.97,42.96h48.34c0-50.42-40.88-91.3-91.3-91.3s-91.3,40.88-91.3,91.3c0,50.43,40.88,91.3,91.3,91.3h0
		L989.81,135.27L989.81,135.27z"/>
	<path class="st1" d="M54.36,113.24c15.92-4.61,24.67-16.17,24.67-32.66c0-22.06-14.98-35.23-40.07-35.23H3.83
		C2.06,45.35,1,46.46,1,48.33v103.7c0,1.87,1.06,2.99,2.83,2.99h13.93c1.78,0,2.83-1.12,2.83-2.99V115.5h12.39l26.25,37.64
		c0.7,1.23,1.8,1.87,3.19,1.87h17.11c1.11,0,1.94-0.4,2.34-1.12c0.23-0.43,0.5-1.35-0.39-2.74L54.36,113.24z M58.98,80.73
		c0,11.59-6.36,17-20.03,17H20.59V63.58h18.36C52.81,63.58,58.98,68.87,58.98,80.73"/>
	<path class="st1" d="M126.61,73.35c-11.92,0-22.33,2.82-30.12,8.18c-1.57,1.26-0.51,2.95-0.15,3.52l6.05,9.22
		c0.46,0.74,1.1,1.21,1.83,1.36c0.74,0.15,1.52-0.05,2.16-0.51c5.08-3.02,12.01-4.74,19.01-4.74c10.52,0,14.43,3.95,14.43,14.58
		v2.06c-5.77-0.75-10.49-1.11-14.43-1.11c-21.53,0-33.87,9.09-33.87,24.94c0,16.52,12.57,26,34.47,26c9.88,0,21.33-1.71,30.71-4.6
		c1.33-0.57,2.1-1.75,2.1-3.23v-44.2C158.81,84.52,147.37,73.35,126.61,73.35 M126,140.11c-5.73,0-15.33-1.23-15.33-9.43
		c0-6.24,4.97-9.28,15.18-9.28c4.51,0,10.06,0.56,13.97,1.11v15.92C136.19,139.28,130.82,140.11,126,140.11"/>
	<path class="st1" d="M240.45,45.35h-13.02c-1.9,0-2.99,1.09-2.99,2.98v28c-4.82-1.92-10.33-2.97-15.64-2.97
		c-20.17,0-33.72,13.19-33.72,32.81v16.65c0,21.62,12.9,34.02,35.38,34.02c9.77,0,21.58-2.11,30.83-5.5
		c1.47-0.55,2.13-1.55,2.13-3.24V48.33C243.43,46.43,242.34,45.35,240.45,45.35 M210.93,139.96c-11.55,0-16.7-5.24-16.7-17v-16.8
		c0-10.62,5.36-15.79,16.39-15.79c5.35,0,10.12,1.25,13.82,3.61v44.07C221.02,139.24,215.91,139.96,210.93,139.96"/>
	<path class="st1" d="M272.84,44.74c-6.1,0-10.71,4.54-10.71,10.56c0,6,4.7,10.7,10.71,10.7c6.02,0,10.55-4.6,10.55-10.7
		C283.39,49.18,278.96,44.74,272.84,44.74"/>
	<path class="st1" d="M279.35,75.17h-13.17c-1.81,0-2.99,1.11-2.99,2.83v74.03c0,1.84,1.15,2.98,2.99,2.98h13.17
		c1.78,0,2.83-1.12,2.83-2.98V78C282.18,76.26,281.1,75.17,279.35,75.17"/>
	<path class="st1" d="M334.75,73.35c-21.4,0-35.23,12.52-35.23,31.9v20.29c0,19.01,13.83,31.29,35.23,31.29
		c21.4,0,35.23-12.28,35.23-31.29v-20.29C369.98,85.87,356.15,73.35,334.75,73.35 M318.67,105.25c0-9.63,5.56-14.73,16.09-14.73
		c10.37,0,16.09,5.23,16.09,14.73v20.29c0,9.24-5.56,14.12-16.09,14.12c-10.52,0-16.09-4.88-16.09-14.12V105.25z"/>
	<path class="st1" d="M443.56,113.24c15.92-4.61,24.67-16.17,24.67-32.66c0-22.06-14.98-35.23-40.07-35.23h-35.12
		c-1.77,0-2.84,1.12-2.84,2.99v103.7c0,1.87,1.06,2.99,2.84,2.99h13.93c1.78,0,2.83-1.12,2.83-2.99V115.5h12.39l26.24,37.64
		c0.7,1.23,1.8,1.87,3.19,1.87h17.11c1.11,0,1.94-0.4,2.34-1.12c0.23-0.43,0.5-1.35-0.39-2.74L443.56,113.24z M448.18,80.73
		c0,11.59-6.36,17-20.03,17H409.8V63.58h18.36C442.01,63.58,448.18,68.87,448.18,80.73"/>
	<path class="st1" d="M517.62,73.35c-15.69,0-34.02,8.32-34.02,31.75v21.5c0,20.89,17.01,30.23,33.87,30.23
		c11.98,0,22.18-3.47,31.16-10.59c0.77-0.58,1.22-1.3,1.31-2.08c0.08-0.74-0.18-1.48-0.71-2.1l-6.2-8.31
		c-0.48-0.68-1.14-1.09-1.88-1.2c-0.73-0.1-1.47,0.1-2.13,0.57c-5.26,3.55-11.44,6.84-20.95,6.84c-9.74,0-15.33-4.81-15.33-13.21
		v-3.52h45.31c1.87,0,2.99-1.06,2.99-2.84V105.1C551.04,89.75,542.26,73.35,517.62,73.35 M502.74,104.95
		c0-12.17,8.09-14.73,14.88-14.73c4.47,0,14.88,1.43,14.88,14.73v3.22h-29.76V104.95z"/>
	<path class="st1" d="M600.43,73.35c-10.32,0-22.14,2.11-30.83,5.5c-1.45,0.54-2.13,1.53-2.13,3.09v98.86c0,1.9,1.09,2.98,2.99,2.98
		h13.02c1.9,0,2.98-1.09,2.98-2.98v-26.93c4.89,1.97,10.05,2.97,15.33,2.97c20.44,0,34.17-13.24,34.17-32.96v-16.65
		C635.96,85.7,623.01,73.35,600.43,73.35 M586.46,92.11c3.17-1.2,8.05-1.89,13.52-1.89c11.54,0,16.69,5.2,16.69,16.85v16.96
		c0,10.58-5.51,15.94-16.39,15.94c-5.15,0-9.92-1.35-13.82-3.91V92.11z"/>
	<path class="st1" d="M685.8,73.35c-21.4,0-35.23,12.52-35.23,31.9v20.29c0,19.01,13.83,31.29,35.23,31.29
		c21.4,0,35.23-12.28,35.23-31.29v-20.29C721.03,85.87,707.21,73.35,685.8,73.35 M669.72,105.25c0-9.63,5.56-14.73,16.09-14.73
		c10.37,0,16.09,5.23,16.09,14.73v20.29c0,9.24-5.56,14.12-16.09,14.12c-10.52,0-16.09-4.88-16.09-14.12V105.25z"/>
	<path class="st1" d="M782.65,74.57c-5.27-0.83-10.22-1.22-15.55-1.22c-9.62,0-19.14,2.07-26.74,5.8c-1.41,0.53-2.13,1.62-2.13,3.24
		v69.64c0,1.9,1.09,2.99,2.99,2.99h13.02c1.9,0,2.98-1.09,2.98-2.99V92.26c3.05-1.17,7.82-1.89,12.61-1.89c4.14,0,8.42,0,12.12,0.59
		c1.23,0.24,1.99-0.12,2.4-0.46c0.57-0.47,0.87-1.18,0.87-2.06v-10.9C785.22,75.87,784.25,74.75,782.65,74.57"/>
	<path class="st1" d="M833.97,139.06L833.97,139.06c-2.37,0.15-4.82,0.3-6.16,0.3c-7.25,0-11.25-4.42-11.25-12.46V92.95h15.33
		c1.81,0,2.99-1.11,2.99-2.83V79.06c0-1.72-1.17-2.84-2.99-2.84h-15.53l-1.32-17.54c-0.19-1.55-1.39-2.59-2.98-2.59h-11.5
		c-1.87,0-2.99,1.06-2.99,2.83v69.19c0,18.25,10.47,28.72,28.72,28.72c2.39,0,5.71-0.16,8.09-0.3c1.7-0.17,2.76-1.37,2.76-3.13
		v-11.5C837.14,140.14,835.94,139.06,833.97,139.06"/>
	<path class="st1" d="M852.93,69.51c-8.26,0-15.07-5.51-15.07-15.07c0-9.49,6.81-15.07,15.07-15.07c8.26,0,15.07,5.58,15.07,15.07
		C868,64,861.19,69.51,852.93,69.51 M853,66.54c6.52,0,11.95-4.27,11.95-12.1c0-7.97-5.43-12.1-11.95-12.1
		c-6.66,0-12.1,4.13-12.1,12.1C840.9,62.26,846.34,66.54,853,66.54 M848.95,61.61c-0.72,0-1.09-0.36-1.09-1.09V48.06
		c0-0.65,0.36-1.09,1.09-1.09h4.78c3.04,0,5.36,1.45,5.36,4.64c0,2.68-1.38,4.06-3.4,4.49l3.12,4.2c0.51,0.8,0.22,1.3-0.58,1.3
		h-1.02c-0.58,0-1.01-0.22-1.3-0.65l-3.26-4.64h-1.96v4.2c0,0.72-0.43,1.09-1.09,1.09H848.95z M850.68,53.79h2.97
		c1.67,0,2.61-0.65,2.61-2.17c0-1.45-1.09-2.03-2.61-2.03h-2.97V53.79z"/>
</g>
</svg>
