<svg xmlns="http://www.w3.org/2000/svg" width="112.853" height="112.853" viewBox="0 0 112.853 112.853">
  <g id="ladebalken_lw01" transform="matrix(0.342, -0.94, 0.94, 0.342, -164.195, 171.644)">
    <rect id="Rectangle_769" data-name="Rectangle 769" width="18.028" height="4.512" transform="translate(185.621 111.483) rotate(90)" fill="#161515" opacity="0.72"/>
    <rect id="Rectangle_770" data-name="Rectangle 770" width="18.028" height="4.512" transform="matrix(0.174, 0.985, -0.985, 0.174, 175.794, 112.011)" fill="#161515" opacity="0.68"/>
    <rect id="Rectangle_771" data-name="Rectangle 771" width="18.028" height="4.512" transform="translate(166.208 114.238) rotate(70)" fill="#161515" opacity="0.64"/>
    <rect id="Rectangle_772" data-name="Rectangle 772" width="18.028" height="4.512" transform="translate(157.154 118.095) rotate(60)" fill="#161515" opacity="0.6"/>
    <rect id="Rectangle_773" data-name="Rectangle 773" width="18.028" height="4.512" transform="translate(148.908 123.466) rotate(50)" fill="#161515" opacity="0.56"/>
    <rect id="Rectangle_774" data-name="Rectangle 774" width="18.028" height="3.98" transform="translate(141.548 130.391) rotate(40)" fill="#161515" opacity="0.52"/>
    <rect id="Rectangle_775" data-name="Rectangle 775" width="18.028" height="3.98" transform="translate(135.674 138.285) rotate(30)" fill="#161515" opacity="0.48"/>
    <rect id="Rectangle_776" data-name="Rectangle 776" width="18.028" height="3.98" transform="translate(131.26 147.08) rotate(20)" fill="#161515" opacity="0.44"/>
    <rect id="Rectangle_777" data-name="Rectangle 777" width="18.028" height="3.98" transform="matrix(0.985, 0.174, -0.174, 0.985, 128.44, 156.507)" fill="#161515" opacity="0.4"/>
    <rect id="Rectangle_778" data-name="Rectangle 778" width="18.028" height="3.98" transform="translate(127.3 166.281)" fill="#161515" opacity="0.36"/>
    <rect id="Rectangle_779" data-name="Rectangle 779" width="18.028" height="3.98" transform="matrix(0.985, -0.174, 0.174, 0.985, 127.874, 176.104)" fill="#161515" opacity="0.32"/>
    <rect id="Rectangle_780" data-name="Rectangle 780" width="18.028" height="3.449" transform="translate(130.236 185.928) rotate(-20)" fill="#161515" opacity="0.28"/>
    <rect id="Rectangle_781" data-name="Rectangle 781" width="18.028" height="3.449" transform="translate(134.178 194.942) rotate(-30)" fill="#161515" opacity="0.24"/>
    <rect id="Rectangle_782" data-name="Rectangle 782" width="18.028" height="3.449" transform="translate(139.625 203.136) rotate(-40)" fill="#161515" opacity="0.2"/>
    <rect id="Rectangle_783" data-name="Rectangle 783" width="18.028" height="3.449" transform="translate(146.411 210.259) rotate(-50)" fill="#161515" opacity="0.18"/>
    <rect id="Rectangle_784" data-name="Rectangle 784" width="18.028" height="3.449" transform="translate(154.332 216.095) rotate(-60)" fill="#161515" opacity="0.16"/>
    <rect id="Rectangle_785" data-name="Rectangle 785" width="18.028" height="3.449" transform="translate(163.146 220.467) rotate(-70)" fill="#161515" opacity="0.14"/>
    <rect id="Rectangle_786" data-name="Rectangle 786" width="18.028" height="2.917" transform="matrix(0.174, -0.985, 0.985, 0.174, 172.847, 223.289)" fill="#161515" opacity="0.12"/>
    <rect id="Rectangle_787" data-name="Rectangle 787" width="18.028" height="2.917" transform="translate(182.629 224.336) rotate(-90)" fill="#161515" opacity="0.11"/>
    <rect id="Rectangle_788" data-name="Rectangle 788" width="18.028" height="2.917" transform="matrix(-0.174, -0.985, 0.985, -0.174, 192.444, 223.67)" fill="#161515" opacity="0.1"/>
    <rect id="Rectangle_789" data-name="Rectangle 789" width="18.028" height="2.917" transform="translate(201.994 221.309) rotate(-110)" fill="#161515" opacity="0.09"/>
    <rect id="Rectangle_790" data-name="Rectangle 790" width="18.028" height="2.917" transform="translate(210.989 217.325) rotate(-120)" fill="#161515" opacity="0.08"/>
    <rect id="Rectangle_791" data-name="Rectangle 791" width="18.028" height="2.917" transform="translate(219.156 211.841) rotate(-130)" fill="#161515" opacity="0.07"/>
    <rect id="Rectangle_792" data-name="Rectangle 792" width="18.028" height="2.385" transform="translate(226.417 204.817) rotate(-140)" fill="#161515" opacity="0.06"/>
    <rect id="Rectangle_793" data-name="Rectangle 793" width="18.028" height="2.385" transform="translate(232.177 196.843) rotate(-150)" fill="#161515" opacity="0.05"/>
    <rect id="Rectangle_794" data-name="Rectangle 794" width="18.028" height="2.385" transform="translate(236.465 187.99) rotate(-160)" fill="#161515" opacity="0.04"/>
    <rect id="Rectangle_795" data-name="Rectangle 795" width="18.028" height="2.385" transform="matrix(-0.985, -0.174, 0.174, -0.985, 239.151, 178.527)" fill="#161515" opacity="0.03"/>
    <rect id="Rectangle_796" data-name="Rectangle 796" width="18.028" height="2.385" transform="translate(240.153 168.741) rotate(-180)" fill="#161515" opacity="0.02"/>
    <rect id="Rectangle_797" data-name="Rectangle 797" width="18.028" height="2.385" transform="matrix(-0.985, 0.174, -0.174, -0.985, 239.44, 158.93)" fill="#161515" opacity="0.01"/>
    <rect id="Rectangle_798" data-name="Rectangle 798" width="18.028" height="5.044" transform="translate(237.489 150.641) rotate(160)" fill="#161515"/>
    <rect id="Rectangle_799" data-name="Rectangle 799" width="18.028" height="5.044" transform="translate(233.674 141.568) rotate(150)" fill="#161515" opacity="0.96"/>
    <rect id="Rectangle_800" data-name="Rectangle 800" width="18.028" height="5.044" transform="translate(228.341 133.295) rotate(140)" fill="#161515" opacity="0.92"/>
    <rect id="Rectangle_801" data-name="Rectangle 801" width="18.028" height="5.044" transform="translate(221.652 126.074) rotate(130)" fill="#161515" opacity="0.88"/>
    <rect id="Rectangle_802" data-name="Rectangle 802" width="18.028" height="5.044" transform="translate(213.811 120.123) rotate(120)" fill="#161515" opacity="0.84"/>
    <rect id="Rectangle_803" data-name="Rectangle 803" width="18.028" height="5.044" transform="translate(205.056 115.625) rotate(110)" fill="#161515" opacity="0.8"/>
    <rect id="Rectangle_804" data-name="Rectangle 804" width="18.028" height="4.512" transform="matrix(-0.174, 0.985, -0.985, -0.174, 195.391, 112.669)" fill="#161515" opacity="0.76"/>
  </g>
</svg>
